<?xml version="1.0" encoding="UTF-8"?>
<svg id="Layer_1" data-name="Layer 1" xmlns="http://www.w3.org/2000/svg" viewBox="0 0 248.07 211.68">
  <defs>
    <style>
      .cls-1 {
        fill: #59a483;
      }

      .cls-2 {
        fill: #9084b8;
      }

      .cls-3 {
        fill: #b2a8dc;
      }

      .cls-4 {
        fill: #8c7fb5;
      }

      .cls-5 {
        fill: #70649c;
      }

      .cls-6 {
        fill: #8fd8bb;
      }

      .cls-7 {
        fill: #b2a6db;
      }
    </style>
  </defs>
  <path class="cls-6" d="M103,143.73c3.09,3.3,7.25,6.53,10.52,9.98,2.91,3.07,5.38,7.33,8.97,10.03,3.11,2.35,2,.3,3.48-1.5,25.65-31.13,49.83-63.48,75.27-94.78,2.76-4.45-6.4-7.94-9.96-10.48-.89-.64-1.81.08-1.27-2.24,5.7-.86,44.92-13.3,46.9-11.91s2.46,42.87,3.1,48.89c-1.07,1.24-11.42-8.66-12.61-8.93-.98-.23-1.3.33-1.92.89l-101.08,127.99c-1.24.27-5.82-4.74-6.9-5.92-10.91-11.95-21.94-23.84-32.48-36.02,7.32-7.62,11.54-17.68,18-26Z"/>
  <path class="cls-7" d="M123,3.73c1.69.98.99,3.83,1.01,5.5.3,27.49-.24,55.02,0,82.5-4.04,3.21-20.37,33.47-22.52,34-2.45.6-28.23-29.09-32.4-32.63L120.97,4.4c.73-1.03,1.96-.58,2.02-.67Z"/>
  <path class="cls-4" d="M123,3.73c.12-.19-.23-5.67,1.99-3,.15.18.25,1.79.79,2.68,14.79,24.19,28.84,48.9,43.22,73.32l-30,37c-.18-.28-1.26-.74-1.83-1.63-4.35-6.81-8.53-13.77-13.17-20.37-.23-27.48.31-55.01,0-82.5-.02-1.67.68-4.51-1.01-5.5Z"/>
  <path class="cls-3" d="M0,210.73l41.01-71c4.67,1.4,6.54,6,9.46,9.02,7.21,7.45,14.81,14.54,22.03,21.98.31.46.5.98.55,1.54.21,2.29-6.61,11.27-8.54,13.48-15.99,18.34-40.72,25.74-64.52,24.98Z"/>
  <path class="cls-2" d="M207,141.73c12.78,21.37,28.52,43.72,39.79,65.71.57,1.12,1.58,1.75,1.21,3.29-20.24.27-41.3-4.21-57.02-17.48-6.03-5.09-8.68-9.49-12.98-15.52l14.99-21.51c5.04-4.06,8-12.01,14.01-14.49Z"/>
  <path class="cls-7" d="M95,135.73c-5.08,8.82-11.57,16.85-16,26-3.11.75-2.48-.66-3.61-1.86-9.21-9.83-19.14-18.93-28.28-28.82l.29-2.35c5.2-8.95,11.48-17.56,15.6-26.96l2.5.99c9.38,10.32,19,20.35,28.53,30.51.8.85.81,2.35.96,2.5Z"/>
  <path class="cls-5" d="M207,141.73c-6.01,2.47-8.97,10.43-14.01,14.49l-14.99,21.51c-.29-.4-1.71-.87-2.45-2.01-.86-1.34-4.62-7.45-4.43-8.35l27.98-35.53c3.58-2.33,6.78,8.04,7.89,9.89Z"/>
  <path class="cls-5" d="M169,76.73c1.64,2.79,5.87,6.95,4.87,10.3l-27.88,36.69c-2.2,2.63-6.62-9.42-6.99-10l30-37Z"/>
  <path class="cls-1" d="M103,143.73c-6.46,8.32-10.68,18.38-18,26-2-2.31-6.68-3.96-6-8,4.43-9.15,10.92-17.18,16-26,2.54,2.54,5.43,5.25,8,8Z"/>
</svg>