<svg width="600" height="337" viewBox="0 0 800 600" fill="none" xmlns="http://www.w3.org/2000/svg">
<path opacity="0.3" fill-rule="evenodd" clip-rule="evenodd" d="M82.416 23H314.31V338.423C314.31 342.575 310.945 345.94 306.793 345.94C303.346 345.94 300.478 343.499 298.759 340.512C296.072 335.842 291.753 332.814 286.883 332.814C282.97 332.814 279.413 334.77 276.772 337.961C273.411 342.023 266.266 345.94 260.993 345.94H253.76C248.487 345.94 241.342 342.023 237.981 337.961C235.34 334.77 231.783 332.814 227.87 332.814C223.957 332.814 220.4 334.77 217.759 337.961C214.397 342.023 207.252 345.94 201.98 345.94H194.746C189.474 345.94 182.329 342.023 178.967 337.961C176.326 334.77 172.769 332.814 168.856 332.814C164.943 332.814 161.386 334.77 158.745 337.961C155.384 342.023 148.239 345.94 142.966 345.94H135.733C130.461 345.94 123.316 342.023 119.954 337.961C117.314 334.77 113.756 332.814 109.843 332.814C104.974 332.814 100.655 335.842 97.9683 340.512C96.2491 343.499 93.3804 345.94 89.9334 345.94C85.7816 345.94 82.416 342.575 82.416 338.423V23Z" fill="#B5CDFB"></path>
<path opacity="0.3" fill-rule="evenodd" clip-rule="evenodd" d="M392.224 23H504.554V345.94C499.282 345.94 492.137 342.023 488.775 337.961C486.135 334.77 482.577 332.814 478.664 332.814C474.751 332.814 471.194 334.77 468.553 337.961C465.192 342.023 458.047 345.94 452.774 345.94H445.542C440.269 345.94 433.124 342.023 429.762 337.961C427.122 334.77 423.564 332.814 419.651 332.814C414.782 332.814 410.463 335.842 407.776 340.512C406.057 343.499 403.189 345.94 399.741 345.94C395.59 345.94 392.224 342.575 392.224 338.423V23Z" fill="#B5CDFB"></path>
<path d="M42.3447 23H542.025V36.3273H42.3447V23Z" fill="#C4B6FF"></path>
<path opacity="0.2" d="M618.233 330.955L671.397 238.385H691.163L711.391 330.955H618.233Z" fill="#7D55FF"></path>
<path opacity="0.3" d="M10 496.317H790V576.811H10V496.317Z" fill="#B5CDFB"></path>
<path d="M658.239 365.522L658.239 554.863L627.709 554.863L627.709 365.522L658.239 365.522Z" fill="#C4B6FF"></path>
<path d="M641.364 365.522L641.364 554.863L627.709 554.863L627.709 365.522L641.364 365.522Z" fill="#7D55FF"></path>
<path d="M740.289 365.522L740.289 554.863L709.759 554.863L709.759 365.522L740.289 365.522Z" fill="#C4B6FF"></path>
<path d="M519.826 264.665H560.784V325.906H519.826V264.665Z" fill="#C4B6FF"></path>
<path d="M554.166 263.586H560.784V322.788H554.166V263.586Z" fill="#7D55FF"></path>
<path d="M465.506 322.788H599.751V330.873H465.506V322.788Z" fill="#C4B6FF"></path>
<path d="M446.537 150.227C446.537 140.25 454.625 132.162 464.602 132.162H637.165C647.143 132.162 655.231 140.25 655.231 150.227V246.295C655.231 256.272 647.143 264.36 637.165 264.36H464.602C454.625 264.36 446.537 256.272 446.537 246.295V150.227Z" fill="#C4B6FF"></path>
<path d="M427.415 149.922C427.415 139.945 435.503 131.857 445.48 131.857H625.052C635.029 131.857 643.117 139.945 643.117 149.922V246.6C643.117 256.577 635.029 264.665 625.052 264.665H445.48C435.503 264.665 427.415 256.577 427.415 246.6V149.922Z" fill="#C4B6FF"></path>
<path d="M427.415 149.922C427.415 139.945 435.503 131.857 445.48 131.857H625.052C635.029 131.857 643.117 139.945 643.117 149.922V246.6C643.117 256.577 635.029 264.665 625.052 264.665H445.48C435.503 264.665 427.415 256.577 427.415 246.6V149.922Z" fill="white" fill-opacity="0.27"></path>
<path d="M432.971 156.29C432.971 146.313 441.059 138.225 451.036 138.225H619.081C629.059 138.225 637.147 146.313 637.147 156.291V240.841C637.147 250.818 629.059 258.906 619.081 258.906H451.036C441.059 258.906 432.971 250.818 432.971 240.841V156.29Z" fill="#B5CDFB"></path>
<path d="M452.316 144.272H618.555V258.906H452.316V144.272Z" fill="white"></path>
<g opacity="0.5">
<path d="M549.211 180.852C549.211 178.274 551.301 176.184 553.879 176.184H598.277C600.855 176.184 602.945 178.274 602.945 180.852C602.945 183.43 600.855 185.519 598.277 185.519H553.879C551.301 185.519 549.211 183.43 549.211 180.852Z" fill="#C4B6FF"></path>
<path d="M549.211 196.357C549.211 193.779 551.301 191.689 553.879 191.689H598.277C600.855 191.689 602.945 193.779 602.945 196.357C602.945 198.935 600.855 201.025 598.277 201.025H553.879C551.301 201.025 549.211 198.935 549.211 196.357Z" fill="#C4B6FF"></path>
<path d="M563.726 213.161C563.726 215.739 561.636 217.829 559.058 217.829C556.48 217.829 554.39 215.739 554.39 213.161C554.39 210.583 556.48 208.493 559.058 208.493C561.636 208.493 563.726 210.583 563.726 213.161Z" fill="#C4B6FF"></path>
<path d="M580.746 213.161C580.746 215.739 578.656 217.829 576.078 217.829C573.5 217.829 571.41 215.739 571.41 213.161C571.41 210.583 573.5 208.493 576.078 208.493C578.656 208.493 580.746 210.583 580.746 213.161Z" fill="#C4B6FF"></path>
<path d="M597.765 213.161C597.765 215.739 595.676 217.829 593.098 217.829C590.52 217.829 588.43 215.739 588.43 213.161C588.43 210.583 590.52 208.493 593.098 208.493C595.676 208.493 597.765 210.583 597.765 213.161Z" fill="#C4B6FF"></path>
<path d="M464.215 155.383C464.215 152.805 466.305 150.715 468.883 150.715H601.08C603.658 150.715 605.747 152.805 605.747 155.383C605.747 157.961 603.658 160.051 601.08 160.051H468.883C466.305 160.051 464.215 157.961 464.215 155.383Z" fill="#C4B6FF"></path>
<path d="M461.973 179.077C461.973 175.087 465.208 171.851 469.199 171.851H534.301C538.292 171.851 541.527 175.087 541.527 179.077V258.906H461.973V179.077Z" fill="#C4B6FF"></path>
<path d="M555.675 227.782H558.059V225.297H555.675V227.782Z" fill="#C4B6FF"></path>
<path d="M563.359 227.782H565.744V225.297H563.359V227.782Z" fill="#C4B6FF"></path>
<path d="M571.043 227.782H573.428V225.297H571.043V227.782Z" fill="#C4B6FF"></path>
<path d="M578.727 227.782H581.112V225.297H578.727V227.782Z" fill="#C4B6FF"></path>
<path d="M586.412 227.782H588.796V225.297H586.412V227.782Z" fill="#C4B6FF"></path>
<path d="M594.096 227.782H596.48V225.297H594.096V227.782Z" fill="#C4B6FF"></path>
<path d="M555.675 234.11H558.059V231.625H555.675V234.11Z" fill="#C4B6FF"></path>
<path d="M563.359 234.11H565.744V231.625H563.359V234.11Z" fill="#C4B6FF"></path>
<path d="M571.043 234.11H573.428V231.625H571.043V234.11Z" fill="#C4B6FF"></path>
<path d="M578.727 234.11H581.112V231.625H578.727V234.11Z" fill="#C4B6FF"></path>
<path d="M586.412 234.11H588.797V231.625H586.412V234.11Z" fill="#C4B6FF"></path>
<path d="M594.096 234.11H596.481V231.625H594.096V234.11Z" fill="#C4B6FF"></path>
<path d="M555.675 240.354H558.059V237.868H555.675V240.354Z" fill="#C4B6FF"></path>
<path d="M563.359 240.354H565.744V237.868H563.359V240.354Z" fill="#C4B6FF"></path>
<path d="M571.043 240.354H573.428V237.868H571.043V240.354Z" fill="#C4B6FF"></path>
<path d="M578.727 240.354H581.112V237.868H578.727V240.354Z" fill="#C4B6FF"></path>
<path d="M586.412 240.354H588.796V237.868H586.412V240.354Z" fill="#C4B6FF"></path>
<path d="M594.096 240.354H596.48V237.868H594.096V240.354Z" fill="#C4B6FF"></path>
</g>
<path d="M590.116 322.788H599.751V333.231H590.116V322.788Z" fill="#7D55FF"></path>
<path d="M723.413 365.522L723.413 554.863L709.759 554.863L709.759 365.522L723.413 365.522Z" fill="#7D55FF"></path>
<path d="M608.696 350.257H757.53V380.787H608.696V350.257Z" fill="#C4B6FF"></path>
<path d="M410.711 365.522L410.711 542.045L380.181 542.045L380.181 365.522L410.711 365.522Z" fill="#C4B6FF"></path>
<path d="M393.366 365.522L393.366 542.045L379.711 542.045L379.711 365.522L393.366 365.522Z" fill="#7D55FF"></path>
<path d="M492.761 365.522L492.761 542.045L462.231 542.045L462.231 365.522L492.761 365.522Z" fill="#C4B6FF"></path>
<path d="M475.416 365.522L475.416 542.045L461.761 542.045L461.761 365.522L475.416 365.522Z" fill="#7D55FF"></path>
<path d="M361.168 350.257H510.002V380.787H361.168V350.257Z" fill="#C4B6FF"></path>
<path d="M361.168 350.257H393.366V380.787H361.168V350.257Z" fill="#7D55FF"></path>
<path d="M608.696 350.257H641.363V380.787H608.696V350.257Z" fill="#7D55FF"></path>
<path d="M325.338 345.94C325.338 337.619 332.084 330.873 340.405 330.873H757.162C765.484 330.873 772.23 337.619 772.23 345.94C772.23 354.262 765.484 361.008 757.162 361.008H340.405C332.084 361.008 325.338 354.262 325.338 345.94Z" fill="#C4B6FF"></path>
<path d="M325.338 345.94C325.338 337.619 332.084 330.873 340.405 330.873H640.163C648.485 330.873 655.231 337.619 655.231 345.94C655.231 354.262 648.485 361.008 640.163 361.008H340.405C332.084 361.008 325.338 354.262 325.338 345.94Z" fill="#7D55FF"></path>
<path d="M348.154 322.788H483.655V330.873H348.154V322.788Z" fill="#C4B6FF"></path>
<path d="M452.812 322.788H483.655V330.873H452.812V322.788Z" fill="#7D55FF"></path>
<path d="M665.678 221.534H680.793V235.875H665.678V221.534Z" fill="#C4B6FF"></path>
<path d="M680.793 221.444H745.545V236.553H680.793V221.444Z" fill="#7D55FF"></path>
<path d="M738.657 235.875L714.321 329.539L708.813 329.539L733.15 235.875L738.657 235.875Z" fill="#C4B6FF"></path>
<path d="M742.812 235.875L718.476 329.539L712.968 329.539L737.305 235.875L742.812 235.875Z" fill="#7D55FF"></path>
<path d="M690.046 323.702C690.046 319.742 693.256 316.531 697.217 316.531H738.374C742.335 316.531 745.545 319.742 745.545 323.702C745.545 327.662 742.335 330.873 738.374 330.873H697.217C693.256 330.873 690.046 327.662 690.046 323.702Z" fill="#7D55FF"></path>
<path d="M692.726 308.756H697.384V316.531H692.726V308.756Z" fill="#C4B6FF"></path>
<path d="M664.832 235.786H695.676V241.293H664.832V235.786Z" fill="#C4B6FF"></path>
<path d="M680.793 235.786H695.676V241.293H680.793V235.786Z" fill="#7D55FF"></path>
<path d="M673.38 323.702C673.38 319.742 676.591 316.531 680.551 316.531H716.282C720.242 316.531 723.452 319.742 723.452 323.702C723.452 327.662 720.242 330.873 716.282 330.873H680.551C676.591 330.873 673.38 327.662 673.38 323.702Z" fill="#C4B6FF"></path>
<path d="M311.876 424.418L311.876 558.098L290.321 558.098L290.321 424.418L311.876 424.418Z" fill="#C4B6FF"></path>
<path d="M311.876 424.418L311.876 558.098L290.321 558.098L290.321 424.418L311.876 424.418Z" fill="black" fill-opacity="0.42"></path>
<path d="M299.962 424.418L299.962 558.098L290.321 558.098L290.321 424.418L299.962 424.418Z" fill="#C4B6FF"></path>
<path d="M137.45 429.536C137.45 419.769 145.368 411.851 155.135 411.851H303.266C313.033 411.851 320.951 419.769 320.951 429.536C320.951 439.304 313.033 447.222 303.266 447.222H155.135C145.368 447.222 137.45 439.304 137.45 429.536Z" fill="#C4B6FF"></path>
<path d="M137.45 429.536C137.45 419.769 145.368 411.851 155.135 411.851H303.266C313.033 411.851 320.951 419.769 320.951 429.536C320.951 439.304 313.033 447.222 303.266 447.222H155.135C145.368 447.222 137.45 439.304 137.45 429.536Z" fill="black" fill-opacity="0.42"></path>
<path d="M168.221 423.154L118.503 242.612L185.469 242.612C196.692 242.612 206.406 250.413 208.829 261.371L244.601 423.154L168.221 423.154Z" fill="#C4B6FF"></path>
<path d="M168.221 423.154L118.503 242.612L185.469 242.612C196.692 242.612 206.406 250.413 208.829 261.371L244.601 423.154L168.221 423.154Z" fill="black" fill-opacity="0.42"></path>
<path d="M178.24 424.418L178.24 558.098L156.685 558.098L156.685 424.418L178.24 424.418Z" fill="#C4B6FF"></path>
<path d="M178.24 424.418L178.24 558.098L156.685 558.098L156.685 424.418L178.24 424.418Z" fill="black" fill-opacity="0.42"></path>
<path d="M166.325 424.418L166.325 558.098L156.684 558.098L156.684 424.418L166.325 424.418Z" fill="#C4B6FF"></path>
<path d="M236.169 424.418L236.169 558.098L214.614 558.098L214.614 424.418L236.169 424.418Z" fill="#C4B6FF"></path>
<path d="M236.169 424.418L236.169 558.098L214.614 558.098L214.614 424.418L236.169 424.418Z" fill="black" fill-opacity="0.42"></path>
<path d="M224.254 424.418L224.254 558.098L214.614 558.098L214.614 424.418L224.254 424.418Z" fill="#C4B6FF"></path>
<path d="M253.947 424.418L253.947 558.098L232.392 558.098L232.392 424.418L253.947 424.418Z" fill="#C4B6FF"></path>
<path d="M253.947 424.418L253.947 558.098L232.392 558.098L232.392 424.418L253.947 424.418Z" fill="black" fill-opacity="0.42"></path>
<path d="M242.032 424.418L242.032 558.098L232.392 558.098L232.392 424.418L242.032 424.418Z" fill="#C4B6FF"></path>
<path d="M164.756 444.018C155.322 446.546 145.624 440.947 143.096 431.512L98.0841 263.526C95.5561 254.091 101.155 244.394 110.59 241.866C120.024 239.338 129.722 244.936 132.25 254.371L177.262 422.358C179.79 431.792 174.191 441.49 164.756 444.018Z" fill="#C4B6FF"></path>
<path fill-rule="evenodd" clip-rule="evenodd" d="M330.362 485.728C333.804 485.54 336.746 488.178 336.934 491.62L332.865 541.729C333.053 545.171 330.415 548.114 326.973 548.302C323.531 548.489 320.589 545.852 320.401 542.41L324.47 492.3C324.283 488.858 326.92 485.916 330.362 485.728Z" fill="#D69962"></path>
<path d="M221.389 179.757L275.016 182.774C275.016 182.774 265.961 210.547 265.062 233.767C240.95 242.283 216.84 205.834 216.84 205.834L221.389 179.757Z" fill="#FFB877"></path>
<path fill-rule="evenodd" clip-rule="evenodd" d="M370.132 493.074C373.645 491.807 377.52 493.628 378.786 497.141L395.477 543.42C396.744 546.932 394.924 550.807 391.411 552.074C387.898 553.341 384.024 551.52 382.757 548.007L366.066 501.728C364.799 498.216 366.62 494.341 370.132 493.074Z" fill="#FFB877"></path>
<path fill-rule="evenodd" clip-rule="evenodd" d="M268.375 201.973C268.949 202.002 269.39 202.492 269.36 203.065C269.227 205.647 270.236 207.754 271.254 209.472C271.421 209.753 271.599 210.04 271.774 210.323C272.098 210.847 272.412 211.354 272.625 211.773C272.796 212.11 272.962 212.497 273.023 212.897C273.089 213.324 273.044 213.83 272.709 214.282C272.285 214.854 271.59 215.228 270.987 215.482C270.344 215.753 269.619 215.961 268.958 216.119C268.292 216.277 267.663 216.391 267.202 216.464C266.971 216.501 266.781 216.528 266.647 216.547C266.58 216.556 266.527 216.563 266.49 216.567L266.447 216.572L266.435 216.574L266.432 216.574L266.43 216.574C266.43 216.575 266.43 216.575 266.312 215.566L266.43 216.574C265.86 216.641 265.342 216.233 265.276 215.662C265.209 215.091 265.618 214.575 266.188 214.508C266.188 214.508 266.188 214.508 266.188 214.508L266.19 214.508L266.197 214.507L266.231 214.503C266.261 214.499 266.308 214.493 266.367 214.485C266.487 214.469 266.661 214.444 266.874 214.41C267.301 214.342 267.876 214.238 268.476 214.095C269.082 213.951 269.685 213.773 270.179 213.565C270.581 213.396 270.822 213.243 270.948 213.134C270.923 213.047 270.87 212.912 270.77 212.715C270.593 212.367 270.362 211.995 270.079 211.54C269.896 211.245 269.691 210.915 269.465 210.533C268.383 208.709 267.117 206.164 267.283 202.958C267.312 202.384 267.801 201.943 268.375 201.973Z" fill="#C4B6FF"></path>
<path d="M158.748 268.577L163.221 275.442L170.086 279.291L164.261 282.932L161.868 289.797L157.396 282.932L150.53 279.083L156.251 275.442L158.748 268.577Z" fill="white" fill-opacity="0.44"></path>
<path d="M193.906 268.993L197.859 275.13L203.892 278.459L198.795 281.683L196.611 287.82L192.658 281.683L186.625 278.355L191.722 275.026L193.906 268.993Z" fill="white" fill-opacity="0.44"></path>
<path d="M172.062 316.946L176.535 323.811L183.4 327.66L177.679 331.405L175.183 338.166L170.71 331.301L163.845 327.556L169.67 323.811L172.062 316.946Z" fill="white" fill-opacity="0.44"></path>
<path d="M207.221 317.362L211.173 323.499L217.31 326.828L212.109 330.156L209.925 336.189L206.076 330.052L199.939 326.724L205.036 323.499L207.221 317.362Z" fill="white" fill-opacity="0.44"></path>
<path d="M185.481 365.315L189.954 372.284L196.819 376.029L190.994 379.774L188.601 386.639L184.128 379.67L177.159 375.925L182.984 372.18L185.481 365.315Z" fill="white" fill-opacity="0.44"></path>
<path d="M220.639 365.835L224.592 371.868L230.625 375.301L225.528 378.525L223.344 384.558L219.391 378.525L213.254 375.093L218.455 371.868L220.639 365.835Z" fill="white" fill-opacity="0.44"></path>
<path d="M204.569 256.763C209.822 246.958 224.857 241.336 223.128 214.769L238.011 223.523C241.731 226.551 245.988 229.063 243.274 231.514C240.56 233.965 248.94 258.405 250.289 262.235L235.713 259.527C228.563 260.986 199.316 266.568 204.569 256.763Z" fill="#FFB877"></path>
<path d="M234.049 227.316C234.049 227.316 241.064 230.155 243.595 231.22C242.884 233.174 244.971 244.49 245.474 247.361C245.474 247.361 236.431 232.317 234.049 227.316Z" fill="#C4B6FF"></path>
<path fill-rule="evenodd" clip-rule="evenodd" d="M265.741 224.912C260.671 224.269 258.631 220.419 258.436 218.534L260.505 218.32C260.613 219.361 262.004 222.341 266.003 222.848L265.741 224.912Z" fill="#C4B6FF"></path>
<path d="M320.118 540.583C320.118 540.583 327.848 544.822 332.962 538.468C347.951 546.35 372.718 551.48 372.615 555.713C372.512 559.946 330.546 558.068 320.952 556.807C317.129 552.214 320.118 540.583 320.118 540.583Z" fill="#C4B6FF"></path>
<path fill-rule="evenodd" clip-rule="evenodd" d="M245.063 298.366C250.086 294.076 257.637 294.669 261.928 299.693L285.648 327.463L334.984 305.286C341.01 302.578 348.091 305.267 350.799 311.293C353.508 317.319 350.819 324.399 344.793 327.108L279.102 356.635L243.737 315.231C239.446 310.208 240.04 302.657 245.063 298.366Z" fill="#D69962"></path>
<path d="M248.81 253.62C242.6 246.531 226.562 244.842 214.259 240.983C212.179 240.328 206.541 249.54 210.568 248.198C214.594 246.855 247.779 264.406 247.779 262.561C247.779 260.715 254.718 260.365 248.81 253.62Z" fill="white"></path>
<path fill-rule="evenodd" clip-rule="evenodd" d="M261.457 290.974C266.699 286.497 274.578 287.117 279.056 292.358L302.502 319.808L347.996 299.185C354.274 296.338 361.672 299.121 364.518 305.4C367.365 311.678 364.582 319.076 358.303 321.922L295.712 350.297L260.073 308.573C255.596 303.331 256.215 295.452 261.457 290.974Z" fill="#FFB877"></path>
<path d="M274.036 317.317L255.493 336.622L246.348 311.474L254.223 294.963L274.036 317.317Z" fill="#BEBEBE"></path>
<path d="M388.811 305.281C376.244 296.653 362.073 293.37 348.629 298.896C339.63 302.594 345.214 313.379 348.057 323.802H368.96C365.834 321.301 365.308 316.772 374.123 317.335C376.263 317.472 382.481 321.77 384.122 323.802H404.05C404.206 321.223 401.377 313.908 388.811 305.281Z" fill="#FFB877"></path>
<path d="M312.949 512.481C312.677 521.589 319.841 529.194 328.949 529.466C338.058 529.738 345.663 522.574 345.934 513.465L312.949 512.481ZM253.952 410.317C261.149 409.91 274.652 412.086 288.171 415.608C294.646 417.294 300.5 419.127 304.857 420.763C307.055 421.589 308.634 422.276 309.625 422.773C311.153 423.539 310.082 423.25 308.576 421.656L332.568 398.997C329.788 396.055 326.271 394.203 324.416 393.274C322.025 392.075 319.285 390.932 316.462 389.871C310.778 387.736 303.785 385.574 296.49 383.673C282.47 380.021 264.744 376.653 252.087 377.37L253.952 410.317ZM308.576 421.656C307.529 420.547 306.937 419.567 306.689 419.128C306.41 418.636 306.272 418.3 306.243 418.23C306.194 418.111 306.299 418.354 306.507 419.139C306.917 420.687 307.415 423.129 307.95 426.512C309.008 433.203 310.011 442.274 310.847 452.471C312.522 472.9 313.424 496.56 312.949 512.481L345.934 513.465C346.458 495.919 345.473 470.954 343.737 449.775C342.867 439.167 341.784 429.189 340.545 421.357C339.932 417.479 339.229 413.792 338.406 410.688C337.998 409.148 337.479 407.434 336.801 405.772C336.271 404.471 335.028 401.602 332.568 398.997L308.576 421.656Z" fill="#C4B6FF"></path>
<path d="M379.465 540.403C379.465 540.403 388.611 548.156 394.262 540.403C412.317 548.82 439.929 552.952 440.046 557.932C440.164 562.911 391.791 561.851 380.447 560.909C375.697 555.728 379.465 540.403 379.465 540.403Z" fill="#C4B6FF"></path>
<path fill-rule="evenodd" clip-rule="evenodd" d="M192.251 371.568L215.106 371.568C236.648 371.568 264.189 371.573 287.973 373.388C299.829 374.293 311.505 375.698 321.409 378.004C326.369 379.158 331.401 380.655 336.018 382.687C340.44 384.633 345.818 387.644 350.189 392.501C355.215 398.085 359.726 405.78 363.554 413.26C367.58 421.126 371.618 430.3 375.428 439.882C383.036 459.014 390.159 480.848 394.727 499.119C397.583 510.545 390.637 522.122 379.212 524.979C367.786 527.835 356.209 520.888 353.352 509.463C349.29 493.212 342.777 473.188 335.799 455.64C332.316 446.882 328.824 439.011 325.589 432.69C322.725 427.093 320.524 423.636 319.183 421.879C319.083 421.831 318.969 421.779 318.84 421.722C317.443 421.108 315.146 420.334 311.739 419.541C304.908 417.95 295.696 416.75 284.727 415.913C262.86 414.243 236.999 414.216 215.106 414.216C203.207 414.216 193.444 404.797 193.017 392.906L192.251 371.568ZM319.769 422.187C319.769 422.187 319.754 422.179 319.728 422.161C319.756 422.178 319.769 422.187 319.769 422.187Z" fill="#7D55FF"></path>
<path d="M191.701 400.4C182.764 368.689 161.632 315.162 204.973 251.969C213.347 239.759 238.418 253.52 266.482 269.759C297.709 304.761 301.133 310.932 301.133 310.932L273.603 332.059L258.291 313.938L266.482 372.906L191.701 400.4Z" fill="#F8F8F8"></path>
<path d="M137.45 430.395C137.45 421.101 144.983 413.568 154.276 413.568H258.222C267.515 413.568 275.049 421.101 275.049 430.395C275.049 439.688 267.515 447.221 258.222 447.221H154.276C144.983 447.221 137.45 439.688 137.45 430.395Z" fill="#C4B6FF"></path>
<path d="M277.494 199.445L248.027 194.533C248.027 196.17 246.799 199.101 241.888 197.726C235.749 196.007 229.364 189.868 225.435 191.587C221.506 193.306 230.837 210.249 223.471 217.125C216.104 224.001 209.228 208.776 203.089 206.075C196.95 203.374 196.734 167.778 210.703 167.778C226.173 167.778 220.033 162.938 227.399 164.82C225.026 162.692 214.385 154.559 241.888 151.415C269.391 148.272 281.341 183.156 277.494 199.445Z" fill="#C4B6FF"></path>
<path d="M235.883 152.562C235.883 160.579 228.184 169.014 220.167 169.014C207.889 177.118 197.33 164.999 197.33 156.982C197.33 148.964 207.484 138.81 215.501 138.81C223.519 138.81 235.883 144.544 235.883 152.562Z" fill="#C4B6FF"></path>
<path fill-rule="evenodd" clip-rule="evenodd" d="M345.117 538.189C345.712 538.812 345.69 539.799 345.067 540.395L336.282 548.787C335.659 549.382 334.671 549.359 334.076 548.736C333.481 548.113 333.503 547.125 334.126 546.53L342.911 538.138C343.534 537.543 344.522 537.565 345.117 538.189Z" fill="#7D55FF"></path>
<path fill-rule="evenodd" clip-rule="evenodd" d="M411.025 539.271C411.62 539.894 411.597 540.881 410.974 541.477L402.189 549.869C401.566 550.464 400.579 550.441 399.983 549.818C399.388 549.195 399.411 548.207 400.034 547.612L408.819 539.22C409.442 538.625 410.429 538.647 411.025 539.271Z" fill="#7D55FF"></path>
<path fill-rule="evenodd" clip-rule="evenodd" d="M353.902 539.271C354.497 539.894 354.475 540.881 353.852 541.477L345.067 549.869C344.444 550.464 343.456 550.441 342.861 549.818C342.266 549.195 342.288 548.207 342.911 547.612L351.696 539.22C352.319 538.625 353.307 538.647 353.902 539.271Z" fill="#7D55FF"></path>
<path fill-rule="evenodd" clip-rule="evenodd" d="M419.81 540.352C420.405 540.975 420.382 541.963 419.759 542.558L410.974 550.95C410.351 551.546 409.364 551.523 408.768 550.9C408.173 550.277 408.196 549.289 408.819 548.694L417.604 540.302C418.227 539.707 419.215 539.729 419.81 540.352Z" fill="#7D55FF"></path>
<path fill-rule="evenodd" clip-rule="evenodd" d="M207.482 339.118C207.621 338.867 207.937 338.776 208.188 338.914L212.791 341.455C213.043 341.593 213.134 341.91 212.996 342.161C212.857 342.413 212.54 342.504 212.289 342.365L207.686 339.825C207.434 339.686 207.343 339.37 207.482 339.118Z" fill="#7D55FF"></path>
<path fill-rule="evenodd" clip-rule="evenodd" d="M208.752 336.817C208.891 336.565 209.207 336.474 209.458 336.613L214.062 339.153C214.313 339.292 214.404 339.608 214.266 339.86C214.127 340.111 213.81 340.203 213.559 340.064L208.956 337.524C208.704 337.385 208.613 337.068 208.752 336.817Z" fill="#7D55FF"></path>
<path fill-rule="evenodd" clip-rule="evenodd" d="M226.202 377.752C226.153 377.469 226.343 377.2 226.626 377.151L231.806 376.251C232.089 376.202 232.358 376.392 232.407 376.675C232.456 376.958 232.267 377.227 231.984 377.276L226.804 378.175C226.521 378.225 226.251 378.035 226.202 377.752Z" fill="#7D55FF"></path>
<path fill-rule="evenodd" clip-rule="evenodd" d="M225.753 375.162C225.703 374.879 225.893 374.61 226.176 374.561L231.356 373.662C231.639 373.612 231.908 373.802 231.957 374.085C232.006 374.368 231.817 374.637 231.534 374.686L226.354 375.586C226.071 375.635 225.802 375.445 225.753 375.162Z" fill="#7D55FF"></path>
<path fill-rule="evenodd" clip-rule="evenodd" d="M182.489 326.59C182.44 326.307 182.63 326.037 182.913 325.988L188.092 325.089C188.375 325.04 188.645 325.229 188.694 325.512C188.743 325.795 188.553 326.065 188.27 326.114L183.091 327.013C182.807 327.062 182.538 326.873 182.489 326.59Z" fill="#7D55FF"></path>
<path fill-rule="evenodd" clip-rule="evenodd" d="M182.04 324C181.991 323.717 182.18 323.448 182.463 323.398L187.643 322.499C187.926 322.45 188.195 322.64 188.244 322.923C188.294 323.206 188.104 323.475 187.821 323.524L182.641 324.423C182.358 324.472 182.089 324.283 182.04 324Z" fill="#7D55FF"></path>
<path fill-rule="evenodd" clip-rule="evenodd" d="M244.432 332.803C244.383 332.52 244.573 332.251 244.856 332.202L250.036 331.303C250.319 331.253 250.588 331.443 250.637 331.726C250.686 332.009 250.497 332.278 250.214 332.327L245.034 333.227C244.751 333.276 244.481 333.086 244.432 332.803Z" fill="#7D55FF"></path>
<path fill-rule="evenodd" clip-rule="evenodd" d="M243.983 330.213C243.934 329.93 244.123 329.661 244.406 329.612L249.586 328.713C249.869 328.664 250.138 328.853 250.188 329.136C250.237 329.419 250.047 329.689 249.764 329.738L244.584 330.637C244.301 330.686 244.032 330.496 243.983 330.213Z" fill="#7D55FF"></path>
<path fill-rule="evenodd" clip-rule="evenodd" d="M222.585 309.71C222.536 309.427 222.725 309.157 223.008 309.108L228.188 308.209C228.471 308.16 228.74 308.35 228.79 308.633C228.839 308.916 228.649 309.185 228.366 309.234L223.186 310.133C222.903 310.182 222.634 309.993 222.585 309.71Z" fill="#7D55FF"></path>
<path fill-rule="evenodd" clip-rule="evenodd" d="M222.135 307.12C222.086 306.837 222.276 306.568 222.559 306.519L227.739 305.62C228.022 305.57 228.291 305.76 228.34 306.043C228.389 306.326 228.2 306.595 227.917 306.644L222.737 307.544C222.454 307.593 222.184 307.403 222.135 307.12Z" fill="#7D55FF"></path>
<path fill-rule="evenodd" clip-rule="evenodd" d="M274.62 307.375C274.813 307.162 275.142 307.147 275.355 307.34L279.243 310.878C279.456 311.072 279.471 311.401 279.278 311.613C279.084 311.826 278.756 311.841 278.543 311.648L274.655 308.109C274.442 307.916 274.427 307.587 274.62 307.375Z" fill="#7D55FF"></path>
<path fill-rule="evenodd" clip-rule="evenodd" d="M276.389 305.43C276.583 305.218 276.912 305.202 277.124 305.396L281.012 308.934C281.225 309.127 281.24 309.456 281.047 309.669C280.854 309.881 280.525 309.897 280.312 309.703L276.424 306.165C276.211 305.972 276.196 305.643 276.389 305.43Z" fill="#7D55FF"></path>
<path fill-rule="evenodd" clip-rule="evenodd" d="M254.39 272.83C254.584 272.618 254.913 272.602 255.125 272.795L259.013 276.334C259.226 276.527 259.241 276.856 259.048 277.068C258.855 277.281 258.526 277.296 258.313 277.103L254.425 273.565C254.212 273.371 254.197 273.043 254.39 272.83Z" fill="#7D55FF"></path>
<path fill-rule="evenodd" clip-rule="evenodd" d="M256.16 270.886C256.353 270.673 256.682 270.658 256.894 270.851L260.783 274.389C260.995 274.583 261.011 274.912 260.817 275.124C260.624 275.337 260.295 275.352 260.083 275.159L256.194 271.62C255.982 271.427 255.966 271.098 256.16 270.886Z" fill="#7D55FF"></path>
<path fill-rule="evenodd" clip-rule="evenodd" d="M196.905 291.138C197.099 290.925 197.427 290.91 197.64 291.103L201.528 294.642C201.741 294.835 201.756 295.164 201.563 295.376C201.37 295.589 201.041 295.604 200.828 295.411L196.94 291.873C196.727 291.679 196.712 291.35 196.905 291.138Z" fill="#7D55FF"></path>
<path fill-rule="evenodd" clip-rule="evenodd" d="M198.674 289.194C198.868 288.981 199.197 288.966 199.409 289.159L203.298 292.698C203.51 292.891 203.526 293.22 203.332 293.432C203.139 293.645 202.81 293.66 202.598 293.467L198.709 289.929C198.497 289.735 198.481 289.406 198.674 289.194Z" fill="#7D55FF"></path>
<path fill-rule="evenodd" clip-rule="evenodd" d="M229.401 263.674C229.352 263.391 229.541 263.122 229.824 263.073L235.004 262.174C235.287 262.125 235.557 262.314 235.606 262.597C235.655 262.88 235.465 263.149 235.182 263.199L230.002 264.098C229.719 264.147 229.45 263.957 229.401 263.674Z" fill="#7D55FF"></path>
<path fill-rule="evenodd" clip-rule="evenodd" d="M228.952 261.084C228.902 260.801 229.092 260.532 229.375 260.483L234.555 259.584C234.838 259.535 235.107 259.724 235.156 260.007C235.205 260.29 235.016 260.56 234.733 260.609L229.553 261.508C229.27 261.557 229.001 261.368 228.952 261.084Z" fill="#7D55FF"></path>
<path fill-rule="evenodd" clip-rule="evenodd" d="M188.23 367.045C188.181 366.762 188.37 366.493 188.653 366.444L193.833 365.545C194.116 365.496 194.385 365.685 194.435 365.968C194.484 366.251 194.294 366.521 194.011 366.57L188.831 367.469C188.548 367.518 188.279 367.328 188.23 367.045Z" fill="#7D55FF"></path>
<path fill-rule="evenodd" clip-rule="evenodd" d="M187.78 364.456C187.731 364.173 187.921 363.903 188.204 363.854L193.384 362.955C193.667 362.906 193.936 363.095 193.985 363.378C194.034 363.661 193.845 363.931 193.562 363.98L188.382 364.879C188.099 364.928 187.83 364.739 187.78 364.456Z" fill="#7D55FF"></path>
<path d="M292.739 305.817L294.384 310.383L289.607 309.525L292.739 305.817Z" fill="#B5CDFB"></path>
<path d="M215.438 357.456L222.725 362.379L214.818 366.228L215.438 357.456Z" fill="#B5CDFB"></path>
<path d="M241.234 344.044L243.233 352.608L234.817 350.057L241.234 344.044Z" fill="#B5CDFB"></path>
<path d="M196.364 307.485L202.494 313.79L193.969 315.947L196.364 307.485Z" fill="#B5CDFB"></path>
<path d="M248.557 281.333L240.296 284.349L241.815 275.687L248.557 281.333Z" fill="#B5CDFB"></path>
<path d="M276.711 289.748L280.613 297.629L271.837 297.067L276.711 289.748Z" fill="#B5CDFB"></path>
<path d="M270.546 314.861L272.628 320.638L266.584 319.552L270.546 314.861Z" fill="#B5CDFB"></path>
<path d="M220.061 289.825L222.142 295.602L216.098 294.516L220.061 289.825Z" fill="#B5CDFB"></path>
<path d="M200.357 277.522L195.102 280.699L194.978 274.559L200.357 277.522Z" fill="#B5CDFB"></path>
<path d="M255.032 291.02L257.114 296.797L251.07 295.711L255.032 291.02Z" fill="#B5CDFB"></path>
<path d="M196.185 347.326L198.266 353.103L192.222 352.017L196.185 347.326Z" fill="#B5CDFB"></path>
<path d="M199.047 378.311L201.129 384.089L195.085 383.003L199.047 378.311Z" fill="#B5CDFB"></path>
<path d="M250.854 361.588L256.793 363.151L252.47 367.513L250.854 361.588Z" fill="#B5CDFB"></path>
<path d="M250.457 312.222L252.539 317.999L246.495 316.913L250.457 312.222Z" fill="#B5CDFB"></path>
<path d="M218.834 270.515L211.255 266.054L218.908 261.721L218.834 270.515Z" fill="#B5CDFB"></path>
<path d="M223.852 332.551L216.273 328.09L223.926 323.758L223.852 332.551Z" fill="#B5CDFB"></path>
</svg>