<svg width="600" height="337" viewBox="0 0 800 600" fill="none" xmlns="http://www.w3.org/2000/svg">
<path d="M732.728 309.816C719.605 390.07 675.74 383.088 604.524 425.402C545.355 460.558 612.6 571.272 442.502 571.272C309.876 571.272 280.213 527.349 222.436 495.561C145.556 453.262 62.938 467.767 62.938 354.233C56.8806 204.83 77.9652 76.1215 191.142 76.1215C277.453 76.1215 294.251 206.157 370.325 183.631C461.824 149.942 556.919 41.9559 638.687 69.2117C760.127 109.692 739.29 236.124 732.728 309.816Z" fill="#B5CDFB" fill-opacity="0.2"></path>
<path d="M500.751 432.678C500.751 418.673 500.322 88.8127 500.322 88.8127C500.322 65.6411 525.687 52.5905 551.913 66.7782L662.405 130.408C683.455 141.416 695.51 159.378 695.51 182.86L693.36 535.511C693.36 548.649 669.14 555.258 657.676 548.839L524.398 471.021C512.178 464.178 500.751 446.684 500.751 432.678Z" fill="#7D55FF"></path>
<path d="M500.751 432.678C500.751 418.673 500.322 88.8127 500.322 88.8127C500.322 65.6411 525.687 52.5905 551.913 66.7782L662.405 130.408C683.455 141.416 695.51 159.378 695.51 182.86L693.36 535.511C693.36 548.649 669.14 555.258 657.676 548.839L524.398 471.021C512.178 464.178 500.751 446.684 500.751 432.678Z" fill="black" fill-opacity="0.2"></path>
<path d="M500.051 434.476V87.5221C499.981 74.2323 513.759 62.695 525.259 69.3571L648.219 140.296C669.887 152.851 679.785 168.671 679.785 191.974L677.909 533.416C677.979 546.761 665.294 553.632 653.795 546.86L525.533 471.936C513.787 465.018 500.123 448.108 500.051 434.476Z" fill="#7D55FF"></path>
<path d="M667.894 214.676L511.399 125.25V406.855L667.894 497.57V214.676Z" fill="#C4B6FF"></path>
<path d="M601.083 325.909L578.209 311.856C575.816 310.597 573.924 307.4 573.924 304.759V273.252C573.924 270.548 575.871 269.435 578.209 270.665L601.083 284.718C603.476 285.977 605.368 289.174 605.368 291.815V323.322C605.368 325.963 603.42 327.139 601.083 325.909Z" fill="#B5CDFB"></path>
<path d="M601.083 257.69L578.209 243.637C575.816 242.378 573.924 239.181 573.924 236.54V205.034C573.924 202.33 575.871 201.216 578.209 202.446L601.083 216.5C603.476 217.759 605.368 220.955 605.368 223.596V255.103C605.368 257.744 603.42 258.92 601.083 257.69Z" fill="#B5CDFB"></path>
<path d="M650.972 284.72L628.098 270.666C625.705 269.407 623.813 266.211 623.813 263.569V232.063C623.813 229.359 625.761 228.246 628.098 229.475L650.972 243.529C653.365 244.788 655.258 247.985 655.258 250.626V282.132C655.258 284.773 653.31 285.95 650.972 284.72Z" fill="#B5CDFB"></path>
<path d="M650.031 348.565L627.157 334.512C624.764 333.253 622.872 330.056 622.872 327.415V295.909C622.872 293.205 624.819 292.091 627.157 293.321L650.031 307.375C652.424 308.634 654.316 311.83 654.316 314.471V345.978C654.316 348.619 652.368 349.795 650.031 348.565Z" fill="#B5CDFB"></path>
<path d="M551.194 298.792L528.321 284.739C525.927 283.479 524.035 280.283 524.035 277.642V246.135C524.035 243.431 525.983 242.318 528.321 243.548L551.194 257.601C553.588 258.86 555.48 262.057 555.48 264.698V296.204C555.48 298.846 553.588 300.051 551.194 298.792Z" fill="#B5CDFB"></path>
<path d="M551.195 231.839L528.321 217.785C525.928 216.526 524.036 213.33 524.036 210.688V179.182C524.036 176.478 525.984 175.365 528.321 176.594L551.195 190.648C553.588 191.907 555.48 195.104 555.48 197.745V229.251C555.48 231.893 553.588 233.098 551.195 231.839Z" fill="#B5CDFB"></path>
<path d="M556.322 336.212V400.672C556.322 405.074 553.942 407.469 550.977 405.909L525.573 390.589C522.649 389.051 520.227 384.192 520.227 379.727V315.268C520.227 310.803 522.608 308.471 525.573 310.031L550.977 325.351C553.942 326.911 556.322 331.747 556.322 336.212Z" fill="#B5CDFB"></path>
<path d="M550.976 405.911C553.941 407.471 556.322 405.076 556.322 400.674V368.444L520.227 347.5V379.73C520.227 384.195 522.649 389.053 525.572 390.591L550.976 405.911Z" fill="white" fill-opacity="0.3"></path>
<path d="M604.02 360.83V393.059V425.289C604.02 429.691 601.64 432.086 598.675 430.526L573.27 415.206C570.347 413.668 567.925 408.81 567.925 404.345V372.115V339.885C567.925 335.42 570.305 333.088 573.27 334.648L598.675 349.968C601.64 351.528 604.02 356.365 604.02 360.83Z" fill="#B5CDFB"></path>
<path d="M598.675 430.526C601.64 432.086 604.02 429.691 604.02 425.289V393.059L567.925 372.115V404.345C567.925 408.81 570.347 413.669 573.27 415.207L598.675 430.526Z" fill="white" fill-opacity="0.3"></path>
<path d="M651.717 385.054V449.513C651.717 453.915 649.337 456.31 646.372 454.751L620.968 439.431C618.045 437.893 615.623 433.034 615.623 428.569V364.11C615.623 359.645 618.003 357.313 620.968 358.873L646.372 374.192C649.337 375.752 651.717 380.589 651.717 385.054Z" fill="#B5CDFB"></path>
<path d="M646.372 454.749C649.337 456.309 651.717 453.914 651.717 449.512V417.282L615.623 396.338V428.567C615.623 433.032 618.045 437.891 620.968 439.429L646.372 454.749Z" fill="white" fill-opacity="0.3"></path>
<path d="M462.49 321.154L157.627 127.838C146.806 120.553 119.267 126.04 119.266 141.466L119.267 311.03C118.912 321.547 124.043 331.495 132.818 337.304L444.824 551.314C460.471 560.399 478.137 547.511 478.137 537.854V352.96C478.137 340.334 472.585 328.22 462.49 321.154Z" fill="#C4B6FF"></path>
<path d="M462.49 321.154L157.627 127.838C146.806 120.553 119.267 126.04 119.266 141.466L119.267 311.03C118.912 321.547 124.043 331.495 132.818 337.304L444.824 551.314C460.471 560.399 478.137 547.511 478.137 537.854V352.96C478.137 340.334 472.585 328.22 462.49 321.154Z" fill="black" fill-opacity="0.2"></path>
<path d="M446.999 329.382L138.408 132.176C130.345 127.023 119.771 132.814 119.771 142.383V313.244C119.771 323.247 124.71 332.604 132.968 338.247L442.027 549.468C450.067 554.963 460.976 549.205 460.976 539.467V354.901C460.976 344.567 455.707 334.947 446.999 329.382Z" fill="#C4B6FF"></path>
<path d="M146.018 147.523V336.296L422.615 524.06V324.182L146.018 147.523Z" fill="#B5CDFB"></path>
<path d="M379.793 316.876C379.793 316.532 379.617 316.213 379.328 316.027L189.966 194.838C189.296 194.409 188.416 194.891 188.416 195.687L188.416 196.644C188.416 196.986 188.59 197.306 188.878 197.491L378.24 319.351C378.91 319.782 379.793 319.301 379.793 318.504L379.793 316.876Z" fill="#C4B6FF"></path>
<path d="M379.793 328.378C379.793 328.034 379.617 327.715 379.328 327.529L189.966 206.34C189.296 205.911 188.416 206.393 188.416 207.189L188.416 208.146C188.416 208.488 188.59 208.808 188.878 208.993L378.24 330.853C378.91 331.284 379.793 330.803 379.793 330.006L379.793 328.378Z" fill="#C4B6FF"></path>
<path d="M379.793 339.88C379.793 339.536 379.617 339.216 379.328 339.031L189.966 217.842C189.296 217.413 188.416 217.894 188.416 218.691L188.416 219.648C188.416 219.99 188.59 220.31 188.878 220.495L378.24 342.355C378.91 342.786 379.793 342.305 379.793 341.508L379.793 339.88Z" fill="#C4B6FF"></path>
<path d="M379.793 351.382C379.793 351.038 379.617 350.718 379.328 350.533L189.966 229.344C189.296 228.915 188.416 229.396 188.416 230.193L188.416 231.15C188.416 231.492 188.59 231.811 188.878 231.997L378.24 353.857C378.91 354.288 379.793 353.807 379.793 353.009L379.793 351.382Z" fill="#C4B6FF"></path>
<path d="M379.793 362.886C379.793 362.542 379.617 362.222 379.328 362.037L189.966 240.848C189.296 240.419 188.416 240.9 188.416 241.697L188.416 242.654C188.416 242.996 188.59 243.315 188.878 243.501L378.24 365.361C378.91 365.792 379.793 365.311 379.793 364.513L379.793 362.886Z" fill="#C4B6FF"></path>
<path d="M401.985 401.358C398.424 398.607 397.84 400.475 397.801 402.506C397.769 404.156 397.953 405.973 398.137 407.789C398.32 409.606 398.504 411.423 398.472 413.073C398.367 418.531 395.301 418.481 391.092 415.23L390.013 414.397L390.077 411.097L390.94 411.763C393.854 414.014 394.97 412.944 395.031 409.771C395.058 408.375 394.978 406.895 394.789 405.332C394.602 403.642 394.522 402.163 394.551 400.64C394.625 396.832 396.064 396.011 398.235 397.044L398.237 396.917C395.983 394.532 394.62 391.417 394.802 387.693C394.833 386.043 394.968 384.73 395.211 383.501C395.457 382.144 395.589 380.958 395.616 379.562C395.68 376.262 394.527 373.568 391.721 371.401L390.858 370.734L390.922 367.434L392.001 368.267C396.21 371.518 399.19 376.01 399.074 381.976C399.042 383.626 398.794 385.109 398.549 386.465C398.301 387.949 398.056 389.305 398.024 390.955C397.99 392.732 398.48 395.688 402.041 398.439L401.985 401.358Z" fill="#C4B6FF"></path>
<path opacity="0.87" d="M223.693 297.135C223.693 295.465 222.867 293.902 221.485 292.962L179.381 264.316C178.041 263.404 176.226 264.364 176.226 265.985L176.226 289.775C176.226 291.446 177.053 293.008 178.434 293.948L220.539 322.594C221.879 323.506 223.694 322.546 223.694 320.925L223.693 297.135Z" fill="#C4B6FF"></path>
<path opacity="0.87" d="M223.693 339.469C223.693 337.799 222.867 336.236 221.485 335.296L179.381 306.65C178.041 305.738 176.226 306.698 176.226 308.319L176.226 332.109C176.226 333.78 177.053 335.342 178.434 336.282L220.539 364.928C221.879 365.84 223.694 364.88 223.694 363.259L223.693 339.469Z" fill="#C4B6FF"></path>
<path opacity="0.87" d="M230.738 301.821V325.611C230.738 327.282 231.565 328.844 232.946 329.784L251.317 342.283C252.658 343.195 254.472 342.235 254.472 340.614L254.472 316.824C254.472 315.153 253.645 313.591 252.264 312.651L233.893 300.152C232.553 299.24 230.738 300.2 230.738 301.821Z" fill="#6C4090"></path>
<path opacity="0.87" d="M262.789 323.958V347.748C262.789 349.418 263.616 350.981 264.997 351.921L283.368 364.42C284.708 365.332 286.523 364.372 286.523 362.75L286.523 338.961C286.523 337.29 285.696 335.727 284.314 334.788L265.944 322.289C264.603 321.377 262.789 322.337 262.789 323.958Z" fill="#6C4090"></path>
<path opacity="0.87" d="M262.789 367.952V391.742C262.789 393.413 263.616 394.975 264.997 395.915L283.368 408.414C284.708 409.326 286.523 408.366 286.523 406.744L286.523 382.955C286.523 381.284 285.696 379.722 284.314 378.782L265.944 366.283C264.603 365.371 262.789 366.331 262.789 367.952Z" fill="#6C4090"></path>
<path opacity="0.87" d="M230.738 344.741V370.133C230.738 370.802 231.069 371.427 231.622 371.803L251.317 385.203C252.658 386.115 254.472 385.155 254.472 383.534L254.472 358.141C254.472 357.473 254.141 356.848 253.589 356.472L233.893 343.072C232.553 342.16 230.738 343.12 230.738 344.741Z" fill="#6C4090"></path>
<path d="M374.16 391.083C374.16 390.744 373.99 390.428 373.707 390.242L302.975 343.538C302.305 343.095 301.412 343.576 301.412 344.378L301.412 346.306C301.412 346.646 301.584 346.964 301.869 347.15L372.602 393.281C373.272 393.718 374.16 393.237 374.16 392.437V391.083Z" fill="#C4B6FF"></path>
<path d="M374.16 400.672C374.16 400.334 373.99 400.018 373.707 399.832L302.975 353.127C302.305 352.685 301.412 353.166 301.412 353.968L301.412 355.895C301.412 356.236 301.584 356.553 301.869 356.739L372.602 402.871C373.272 403.308 374.16 402.827 374.16 402.027V400.672Z" fill="#C4B6FF"></path>
<path d="M374.16 409.718L301.412 361.684L301.412 366.029L374.16 413.475V409.718Z" fill="#C4B6FF"></path>
<path d="M374.16 419.852C374.16 419.514 373.99 419.198 373.707 419.011L302.975 372.307C302.305 371.865 301.412 372.345 301.412 373.148L301.412 375.075C301.412 375.416 301.584 375.733 301.869 375.919L372.602 422.05C373.272 422.487 374.16 422.007 374.16 421.206V419.852Z" fill="#C4B6FF"></path>
<path d="M374.16 429.442C374.16 429.103 373.99 428.788 373.707 428.601L302.975 381.897C302.305 381.455 301.412 381.935 301.412 382.738L301.412 384.665C301.412 385.005 301.584 385.323 301.869 385.509L372.602 431.64C373.272 432.077 374.16 431.596 374.16 430.796V429.442Z" fill="#C4B6FF"></path>
<path d="M374.16 439.032C374.16 438.693 373.99 438.377 373.707 438.191L302.975 391.487C302.305 391.045 301.412 391.525 301.412 392.328L301.412 394.255C301.412 394.595 301.584 394.913 301.869 395.099L372.602 441.23C373.272 441.667 374.16 441.186 374.16 440.386V439.032Z" fill="#C4B6FF"></path>
<path d="M374.16 448.622C374.16 448.283 373.99 447.967 373.707 447.781L302.975 401.077C302.305 400.634 301.412 401.115 301.412 401.917L301.412 403.845C301.412 404.185 301.584 404.503 301.869 404.689L372.602 450.82C373.272 451.257 374.16 450.776 374.16 449.976V448.622Z" fill="#C4B6FF"></path>
<path d="M301.412 411.507L301.412 413.434C301.412 413.775 301.584 414.092 301.869 414.278L336.228 436.687C336.898 437.124 337.786 436.643 337.786 435.843L337.786 434.194C337.786 433.856 337.616 433.54 337.333 433.353L302.975 410.667C302.305 410.224 301.412 410.705 301.412 411.507Z" fill="#C4B6FF"></path>
<path d="M159.852 204.745C164.37 207.275 165.054 204.834 165.054 202.323C165.054 200.283 164.781 198.09 164.507 195.897C164.233 193.703 163.959 191.51 163.959 189.47C163.959 182.723 167.793 182.045 173.132 185.035L174.501 185.802V189.882L173.406 189.268C169.709 187.198 168.34 187.719 168.34 191.642C168.34 193.368 168.477 196.237 168.751 198.116C169.025 200.153 169.162 201.956 169.162 203.839C169.162 208.546 167.382 209.903 164.644 209.154V209.311C167.519 211.706 169.298 215.213 169.162 219.844C169.162 221.884 169.025 223.533 168.751 225.106C168.477 226.836 168.34 228.328 168.34 230.054C168.34 234.134 169.846 236.165 173.406 238.158L174.501 238.772V244.018L173.132 243.251C167.793 240.261 163.959 235.447 163.959 228.071C163.959 226.032 164.233 224.145 164.507 222.415C164.781 220.529 165.054 218.799 165.054 216.759C165.054 214.562 164.37 211.041 159.852 208.511V204.745Z" fill="#6C4090"></path>
<path d="M450.831 433.861C451.141 443.25 446.891 450.087 441.339 449.133C435.787 448.179 431.035 439.795 430.725 430.406C430.415 421.017 434.665 414.18 440.217 415.134C445.769 416.088 450.521 424.472 450.831 433.861Z" fill="#B5CDFB"></path>
<path d="M237.252 232.358V53.1387C237.252 45.2793 248.967 34.2402 266.698 44.4972L495.175 181.121C505.27 187.43 508.298 197.525 508.298 210.396V393.616C508.298 401.577 490.934 407.222 484.214 402.957L248.967 253.666C241.672 249.037 237.252 240.997 237.252 232.358Z" fill="#C4B6FF"></path>
<path d="M237.252 232.358V53.1387C237.252 45.2793 248.967 34.2402 266.698 44.4972L495.175 181.121C505.27 187.43 508.298 197.525 508.298 210.396V393.616C508.298 401.577 490.934 407.222 484.214 402.957L248.967 253.666C241.672 249.037 237.252 240.997 237.252 232.358Z" fill="black" fill-opacity="0.5"></path>
<path d="M237.252 232.357V53.1378C237.252 45.2785 245.837 40.4337 252.565 44.4963L487.525 186.376C495.679 191.971 499.717 197.271 499.717 207.98V394.433C499.717 402.393 490.934 407.221 484.213 402.956L248.966 253.665C241.672 249.036 237.252 240.997 237.252 232.357Z" fill="#C4B6FF"></path>
<path d="M263.21 79.7046C263.493 82.29 261.612 84.056 259.01 83.6493C256.408 83.2425 254.07 80.8168 253.787 78.2315C253.504 75.6461 255.384 73.88 257.987 74.2868C260.589 74.6936 262.927 77.1192 263.21 79.7046Z" fill="#7D55FF"></path>
<path d="M483.158 203.553L254.453 64.5546C253.107 63.7369 251.385 64.7055 251.385 66.2799V80.0515C251.385 81.8086 252.299 83.4392 253.797 84.3565L482.512 224.345C483.857 225.169 485.584 224.201 485.584 222.623V207.866C485.584 206.103 484.665 204.468 483.158 203.553Z" fill="#B5CDFB"></path>
<path d="M483.158 232.715L254.453 93.7167C253.107 92.899 251.385 93.8676 251.385 95.442V109.214C251.385 110.971 252.299 112.601 253.797 113.519L482.512 253.507C483.857 254.331 485.584 253.363 485.584 251.785V237.028C485.584 235.265 484.665 233.63 483.158 232.715Z" fill="#B5CDFB"></path>
<path d="M264.219 79.7046C264.502 82.29 262.622 84.056 260.02 83.6493C257.418 83.2425 255.079 80.8168 254.796 78.2315C254.514 75.6461 256.394 73.88 258.996 74.2868C261.598 74.6936 263.937 77.1192 264.219 79.7046Z" fill="white" fill-opacity="0.5"></path>
<path d="M276.333 86.4956C276.616 89.081 274.736 90.8471 272.134 90.4403C269.532 90.0335 267.193 87.6079 266.91 85.0225C266.628 82.4371 268.508 80.671 271.11 81.0778C273.712 81.4846 276.051 83.9102 276.333 86.4956Z" fill="#7D55FF"></path>
<path d="M288.447 93.2886C288.73 95.8739 286.85 97.64 284.248 97.2332C281.645 96.8265 279.307 94.4008 279.024 91.8155C278.742 89.2301 280.622 87.464 283.224 87.8708C285.826 88.2776 288.164 90.7032 288.447 93.2886Z" fill="#C4B6FF"></path>
<path d="M423.625 204.009L259.584 104.07V112.146L423.625 212.589V204.009Z" fill="white" fill-opacity="0.5"></path>
<path d="M484.716 274.442L330.265 181.124C329.592 180.717 328.734 181.202 328.734 181.988V185.687C328.734 186.04 328.918 186.367 329.219 186.55L483.67 280.367C484.342 280.775 485.203 280.291 485.203 279.504V275.306C485.203 274.953 485.018 274.625 484.716 274.442Z" fill="white" fill-opacity="0.5"></path>
<path d="M406.986 291.934L252.535 198.616C251.862 198.209 251.004 198.694 251.004 199.48V203.179C251.004 203.532 251.188 203.859 251.489 204.042L405.94 297.859C406.612 298.267 407.473 297.783 407.473 296.996V292.798C407.473 292.445 407.288 292.117 406.986 291.934Z" fill="white" fill-opacity="0.5"></path>
<path d="M484.716 286.782L330.265 193.463C329.592 193.057 328.734 193.541 328.734 194.327V198.027C328.734 198.38 328.918 198.707 329.219 198.89L483.67 292.706C484.342 293.115 485.203 292.631 485.203 291.844V287.646C485.203 287.292 485.018 286.965 484.716 286.782Z" fill="white" fill-opacity="0.5"></path>
<path d="M406.986 304.276L252.535 210.958C251.862 210.551 251.004 211.036 251.004 211.822V215.521C251.004 215.874 251.188 216.201 251.489 216.384L405.94 310.201C406.612 310.609 407.473 310.125 407.473 309.338V305.14C407.473 304.787 407.288 304.459 406.986 304.276Z" fill="white" fill-opacity="0.5"></path>
<path d="M484.716 299.122L330.265 205.803C329.592 205.397 328.734 205.881 328.734 206.667V210.367C328.734 210.72 328.918 211.047 329.219 211.23L483.67 305.046C484.342 305.455 485.203 304.971 485.203 304.184V299.986C485.203 299.632 485.018 299.304 484.716 299.122Z" fill="white" fill-opacity="0.5"></path>
<path d="M406.99 317.625L252.539 223.31C251.867 222.899 251.004 223.383 251.004 224.171V227.864C251.004 228.215 251.186 228.541 251.485 228.724L405.936 323.537C406.608 323.95 407.473 323.466 407.473 322.677V318.486C407.473 318.134 407.29 317.808 406.99 317.625Z" fill="white" fill-opacity="0.5"></path>
<path d="M250.499 235.564V239.243C250.499 239.591 250.678 239.914 250.972 240.098L317.78 281.972C318.452 282.393 319.326 281.91 319.326 281.117V277.222C319.326 276.874 319.146 276.55 318.85 276.365L252.042 234.707C251.37 234.288 250.499 234.771 250.499 235.564Z" fill="white" fill-opacity="0.5"></path>
<path d="M328.551 219.508V223.207C328.551 223.558 328.734 223.883 329.033 224.066L395.845 264.963C396.516 265.374 397.378 264.89 397.378 264.103V260.189C397.378 259.837 397.195 259.511 396.895 259.328L330.083 218.647C329.411 218.239 328.551 218.722 328.551 219.508Z" fill="white" fill-opacity="0.5"></path>
<path d="M474.604 235.553L432.206 209.559V217.13L474.604 243.376V235.553Z" fill="black" fill-opacity="0.5"></path>
<path d="M251.004 184.562V136.516C251.004 134.923 252.762 133.958 254.107 134.813L315.292 172.74C316.748 173.666 317.629 175.272 317.629 176.998V224.58C317.629 226.168 315.88 227.135 314.536 226.289L253.364 188.835C251.895 187.911 251.004 186.297 251.004 184.562Z" fill="#B5CDFB"></path>
<path d="M418.577 332.314V284.268C418.577 282.675 420.336 281.71 421.68 282.565L482.865 321.501C484.321 322.428 485.203 324.034 485.203 325.759V373.341C485.203 374.93 483.454 375.896 482.109 375.051L420.938 336.587C419.469 335.663 418.577 334.049 418.577 332.314Z" fill="#B5CDFB"></path>
<path d="M429.755 127.082L429.755 57.712C429.755 55.414 434.121 52.8203 437.438 54.8728L481.141 78.8024C483.075 79.8642 483.156 82.1872 483.156 84.3935L483.156 153.334C483.156 155.622 480.233 157.855 478.219 156.769L432.931 132.403C430.975 131.348 429.755 129.305 429.755 127.082Z" fill="#B5CDFB"></path>
<path d="M429.755 127.082L429.755 57.712C429.755 55.414 434.121 52.8203 437.438 54.8728L481.141 78.8024C483.075 79.8642 483.156 82.1872 483.156 84.3935L483.156 153.334C483.156 155.622 480.233 157.855 478.219 156.769L432.931 132.403C430.975 131.348 429.755 129.305 429.755 127.082Z" fill="black" fill-opacity="0.3"></path>
<path d="M429.755 127.084L429.755 57.7145C429.755 55.4164 432.218 53.9589 434.233 55.0649L478.005 79.0967C479.939 80.1585 481.141 82.1896 481.141 84.3959L481.141 153.337C481.141 155.625 478.697 157.083 476.683 155.997L432.931 132.405C430.975 131.35 429.755 129.307 429.755 127.084Z" fill="#B5CDFB"></path>
<path d="M449.69 91.1709L438.674 85.5905C437.804 85.15 437.071 83.9833 437.087 82.9622L437.28 70.6618C437.295 69.6871 438.012 69.2082 438.923 69.6697L449.939 75.25C450.808 75.6906 451.541 76.8572 451.525 77.8784L451.332 90.2252C451.317 91.1999 450.601 91.6324 449.69 91.1709ZM438.912 70.366C438.374 70.0932 437.91 70.3731 437.901 70.9765L437.708 83.3233C437.698 83.9267 438.146 84.668 438.684 84.9407L449.7 90.521C450.238 90.7937 450.702 90.5139 450.711 89.9105L450.904 77.5637C450.914 76.9603 450.466 76.219 449.928 75.9463L438.912 70.366Z" fill="#C4B6FF"></path>
<path d="M449.336 114.352L438.321 108.772C437.451 108.331 436.718 107.165 436.734 106.143L436.927 93.7966C436.942 92.8218 437.659 92.3429 438.57 92.8045L449.586 98.3848C450.455 98.8253 451.188 99.992 451.173 101.013L450.979 113.36C450.963 114.381 450.247 114.814 449.336 114.352ZM438.559 93.5471C438.02 93.2744 437.557 93.5542 437.547 94.1577L437.354 106.504C437.345 107.108 437.792 107.849 438.331 108.122L449.346 113.702C449.885 113.975 450.348 113.695 450.357 113.092L450.551 100.745C450.56 100.141 450.113 99.4002 449.574 99.1274L438.559 93.5471Z" fill="#C4B6FF"></path>
<path d="M448.982 137.002L437.967 131.422C437.097 130.982 436.364 129.815 436.38 128.794L436.573 116.447C436.588 115.472 437.305 114.993 438.216 115.455L449.232 121.035C450.101 121.476 450.834 122.642 450.819 123.664L450.625 136.01C450.61 136.985 449.893 137.464 448.982 137.002ZM438.205 116.151C437.667 115.878 437.204 116.158 437.194 116.762L437.001 129.108C436.992 129.712 437.439 130.453 437.977 130.726L448.993 136.306C449.531 136.579 449.995 136.299 450.004 135.696L450.197 123.349C450.207 122.745 449.759 122.004 449.221 121.731L438.205 116.151Z" fill="#C4B6FF"></path>
<path d="M449.084 73.8322L448.877 87.0145C448.874 87.2465 448.83 87.4112 448.743 87.6013C448.529 87.9606 448.068 88.1012 447.571 87.8495L435.81 81.8916C435.106 81.5349 434.536 80.5914 434.548 79.8023L434.755 66.5737C434.768 65.7846 435.358 65.4284 436.062 65.7851L447.823 71.743C448.527 72.0996 449.096 73.0431 449.084 73.8322Z" fill="#C4B6FF"></path>
<path d="M448.73 96.4374L448.524 109.62C448.52 109.852 448.476 110.016 448.39 110.207C448.175 110.566 447.714 110.706 447.217 110.455L435.456 104.497C434.752 104.14 434.183 103.197 434.195 102.408L434.401 89.2253C434.414 88.4362 435.003 88.08 435.707 88.4367L447.468 94.3946C448.173 94.7048 448.743 95.6483 448.73 96.4374Z" fill="#C4B6FF"></path>
<path d="M448.17 132.225L448.377 119.042C448.389 118.253 447.819 117.31 447.115 117L435.354 111.042C434.65 110.685 434.06 111.041 434.047 111.83L433.841 125.012C433.829 125.802 434.398 126.745 435.102 127.102L446.863 133.06C447.36 133.311 447.822 133.171 448.036 132.811C448.122 132.621 448.167 132.457 448.17 132.225Z" fill="#C4B6FF"></path>
<g opacity="0.77">
<path d="M470.895 86.7302L455.697 78.0216L455.664 80.1568L470.862 88.8654L470.895 86.7302Z" fill="#C4B6FF"></path>
<path d="M478.028 95.071L455.624 82.7121L455.591 84.8473L477.995 97.2062L478.028 95.071Z" fill="#C4B6FF"></path>
<path d="M455.551 87.3987L477.955 99.7576L477.922 101.893L455.518 89.5339L455.551 87.3987Z" fill="#C4B6FF"></path>
<path d="M470.542 109.335L455.344 100.626L455.311 102.762L470.509 111.47L470.542 109.335Z" fill="#C4B6FF"></path>
<path d="M455.27 105.315L477.674 117.674L477.641 119.809L455.237 107.45L455.27 105.315Z" fill="#C4B6FF"></path>
<path d="M477.6 122.408L455.196 110.049L455.163 112.184L477.567 124.543L477.6 122.408Z" fill="#C4B6FF"></path>
<path d="M454.99 123.231L470.188 131.94L470.155 134.075L454.957 125.366L454.99 123.231Z" fill="#C4B6FF"></path>
<path d="M477.32 140.279L454.916 127.92L454.883 130.055L477.287 142.414L477.32 140.279Z" fill="#C4B6FF"></path>
<path d="M454.843 132.654L477.246 145.013L477.213 147.148L454.809 134.789L454.843 132.654Z" fill="#C4B6FF"></path>
</g>
<path d="M152.573 106.119L152.573 36.7492C152.573 34.4511 156.94 31.8574 160.256 33.9099L203.959 57.8395C205.893 58.9013 205.974 61.2243 205.974 63.4306L205.974 132.371C205.974 134.659 203.051 136.892 201.037 135.807L155.749 111.44C153.793 110.385 152.573 108.342 152.573 106.119Z" fill="#B5CDFB"></path>
<path d="M152.573 106.119L152.573 36.7492C152.573 34.4511 156.94 31.8574 160.256 33.9099L203.959 57.8395C205.893 58.9013 205.974 61.2243 205.974 63.4306L205.974 132.371C205.974 134.659 203.051 136.892 201.037 135.807L155.749 111.44C153.793 110.385 152.573 108.342 152.573 106.119Z" fill="black" fill-opacity="0.3"></path>
<path d="M152.573 106.119L152.573 36.7496C152.573 34.4516 155.036 32.9941 157.051 34.1L200.823 58.1319C202.757 59.1937 203.959 61.2248 203.959 63.4311L203.959 132.372C203.959 134.66 201.515 136.118 199.502 135.032L155.749 111.441C153.793 110.386 152.573 108.342 152.573 106.119Z" fill="#B5CDFB"></path>
<g opacity="0.77">
<path d="M188.634 62.0392L160.398 46.8126L160.365 48.9478L188.601 64.1744L188.634 62.0392Z" fill="#C4B6FF"></path>
<path d="M195.767 70.3801L160.325 51.5032L160.292 53.6383L195.733 72.5152L195.767 70.3801Z" fill="#C4B6FF"></path>
<path d="M160.252 56.1897L195.694 75.0667L195.661 77.2018L160.219 58.3249L160.252 56.1897Z" fill="#C4B6FF"></path>
<path d="M188.281 84.6441L160.045 69.4175L160.012 71.5526L188.248 86.7793L188.281 84.6441Z" fill="#C4B6FF"></path>
<path d="M159.971 74.106L195.413 92.983L195.38 95.1181L159.938 76.2412L159.971 74.106Z" fill="#C4B6FF"></path>
<path d="M195.339 97.7169L159.897 78.84L159.864 80.9751L195.306 99.852L195.339 97.7169Z" fill="#C4B6FF"></path>
<path d="M159.691 92.0224L187.927 107.249L187.894 109.384L159.658 94.1575L159.691 92.0224Z" fill="#C4B6FF"></path>
<path d="M195.059 115.588L159.617 96.7109L159.584 98.8461L195.026 117.723L195.059 115.588Z" fill="#C4B6FF"></path>
<path d="M159.543 101.445L194.985 120.322L194.952 122.457L159.51 103.58L159.543 101.445Z" fill="#C4B6FF"></path>
</g>
<path d="M235.724 366.868C235.724 366.868 236.22 365.188 236.606 364.193C236.702 363.946 236.77 363.741 236.847 363.508L236.847 363.508C236.991 363.072 237.168 362.537 237.623 361.441C238.321 359.761 238.72 359.151 239.094 359.297C239.469 359.442 239.711 360.258 239.257 361.388C238.802 362.517 238.152 364.185 237.946 364.912C237.74 365.64 236.935 369.166 236.935 369.166L238.067 368.667L239.496 366.332C239.496 366.332 240.846 365.072 241.884 365.317C242.781 365.53 241.912 366.464 241.193 367.236C241.08 367.358 240.971 367.475 240.872 367.586C240.152 368.394 239.689 369.457 239.266 370.427C238.992 371.056 238.403 372.24 238.103 372.696C237.785 373.182 235.168 376.26 235.168 376.26C235.168 376.26 233.933 377.99 233.556 379.038C233.179 380.087 232.13 382.393 232.13 382.393C232.13 382.393 231.588 384.353 230.891 386.101C229.734 389.003 228.488 392.127 226.788 394.586C226.208 395.425 225.483 396.512 224.727 397.647C222.97 400.285 221.041 403.181 220.354 403.81C219.371 404.71 212.524 408.482 207.974 409.334C203.423 410.187 195.012 412.896 195.012 412.896C195.012 412.896 192.666 410.224 191.718 408.027C190.771 405.829 190.832 401.618 190.832 401.618C190.832 401.618 192.675 401.324 193.805 401.593C194.153 401.676 194.594 401.872 195.105 402.099C196.188 402.582 197.588 403.205 199.104 403.19C200.613 403.176 202.356 402.484 203.815 401.906C204.632 401.581 205.36 401.293 205.907 401.178C207.636 400.817 209.155 400.554 210.443 400.332C213.202 399.854 214.896 399.561 215.295 398.882C215.624 398.324 215.971 397.705 216.345 397.039C217.584 394.829 219.115 392.101 221.223 389.342C222.933 387.105 224.865 383.919 226.57 381.109L226.57 381.109C227.545 379.502 228.406 378.082 229.026 377.17C229.026 377.17 229.933 375.371 230.084 374.688C230.289 373.757 230.893 372.778 230.765 371.831C230.774 370.853 230.603 369.017 230.582 368.241C230.561 367.465 230.477 366.019 230.608 365.384C230.765 364.519 230.967 363.851 231.132 363.235C231.189 363.024 231.319 362.663 231.394 362.397C231.491 362.055 231.794 361.349 232.049 360.785C232.383 360.036 232.515 359.644 232.923 359C233.009 358.865 233.103 358.717 233.209 358.547C233.824 357.566 234.312 358.993 233.985 359.778C233.764 360.308 233.505 360.636 233.347 360.916C232.972 361.665 232.876 362.026 232.705 362.777C232.437 363.951 232.13 365.648 232.13 365.648C232.13 365.648 232.46 363.925 232.834 362.961C233.114 362.24 233.209 361.998 233.556 361.143C233.633 360.953 233.732 360.811 233.868 360.615L233.868 360.615C234.022 360.393 234.223 360.104 234.493 359.602C234.612 359.38 234.697 359.135 234.776 358.905L234.776 358.905C234.947 358.413 235.094 357.986 235.51 357.986C236.119 357.986 236.356 359.107 235.857 360.019C235.69 360.326 235.567 360.642 235.449 360.945L235.449 360.945C235.356 361.183 235.267 361.413 235.162 361.624C234.908 362.131 234.807 362.443 234.649 362.93L234.649 362.93C234.573 363.164 234.484 363.438 234.359 363.792C233.963 364.916 233.801 366.297 233.801 366.297C233.801 366.297 234.284 364.734 234.701 363.657C234.802 363.396 234.869 363.157 234.938 362.915C235.059 362.482 235.184 362.038 235.51 361.441C235.715 361.065 235.8 360.777 235.881 360.504L235.881 360.504C235.966 360.216 236.047 359.944 236.259 359.602C236.388 359.393 236.49 359.142 236.587 358.9L236.587 358.9C236.804 358.366 237.002 357.876 237.436 357.986C238.067 358.146 238.293 358.895 237.864 360.019C237.75 360.497 237.452 360.879 237.239 361.361C237.097 361.681 236.944 362.135 236.845 362.423C236.692 362.867 236.57 363.232 236.439 363.668C236.358 363.939 236.285 364.242 236.177 364.585C235.856 365.605 235.724 366.868 235.724 366.868Z" fill="#F8BCBF"></path>
<path d="M232.925 359.001C233.01 358.867 233.104 358.718 233.21 358.549C233.584 357.953 233.911 358.246 234.036 358.743C234.014 358.817 233.936 359.012 233.803 359.201C233.636 359.436 233.363 359.607 233.099 359.502C232.835 359.397 232.983 359.1 232.925 359.001L232.925 359.001Z" fill="#FD565E"></path>
<path d="M234.777 358.906C234.948 358.414 235.095 357.988 235.511 357.988C235.731 357.988 235.902 358.134 236.008 358.363C235.946 358.577 235.802 359.017 235.725 359.07C235.628 359.135 235.457 359.512 235.051 359.397C234.702 359.298 234.831 359.004 234.777 358.906Z" fill="#FD565E"></path>
<path d="M236.607 358.794C236.824 358.26 237.003 357.878 237.437 357.988C237.613 358.032 237.758 358.123 237.865 358.254C237.813 358.437 237.691 358.842 237.624 359.001C237.541 359.201 237.314 359.397 236.936 359.298C236.607 359.212 236.663 358.894 236.607 358.794Z" fill="#FD565E"></path>
<path d="M239.096 359.298C239.206 359.341 239.311 359.446 239.394 359.603C239.368 359.766 239.293 360.123 239.205 360.249C239.096 360.406 238.799 360.727 238.485 360.616C238.233 360.528 238.287 360.182 238.28 360.02C238.609 359.419 238.857 359.206 239.096 359.298Z" fill="#FD565E"></path>
<path d="M240.873 365.923C240.95 365.807 241.322 365.389 241.472 365.319C241.622 365.248 241.885 365.319 241.885 365.319C242.583 365.484 242.212 366.086 241.674 366.709C241.476 366.788 241.038 366.898 240.873 366.709C240.668 366.473 240.778 366.067 240.873 365.923Z" fill="#FD565E"></path>
<path d="M223.905 378.139C223.905 372.465 219.205 367.393 213.408 367.393C207.611 367.393 202.923 372.003 202.912 377.666C203.003 379.642 203.409 381.445 203.991 383.007C204.642 385.38 205.344 387.726 205.344 389.25C205.344 392.678 204.298 394.688 202.923 395.804C201.548 396.921 193.7 400.187 192.137 400.634C190.592 401.075 190.477 402.183 190.198 404.869L190.188 404.964C189.76 409.084 192.62 413.131 193.29 414.471C193.96 415.811 200.865 438.803 200.418 442.153C199.793 446.843 193.795 453.273 192.137 462.798C191.408 466.984 190.87 474.808 192.137 480.933C192.993 485.073 192.715 489.325 192.871 491.007C193.406 496.786 193.814 503.262 193.814 503.262C194.135 505.651 195.599 516.166 194.789 519.26C193.612 523.754 192.779 528.218 192.137 533.034C191.547 537.462 191.466 546.773 191.685 549.118C192.006 552.542 191.638 561.552 190.722 563.565C189.806 565.578 189.136 566.516 189.136 567.946C189.136 569.377 189.964 570.807 192.533 570.807C195.101 570.807 195.617 570.762 197.896 571.12C200.176 571.477 204.579 573.136 205.807 569.69C207.035 566.243 203.767 565.878 201.531 566.026C199.295 566.175 197.36 563.688 196.824 562.091C195.897 559.331 200.568 544.195 201.531 537.988C202.494 531.781 204.849 522.684 204.849 519.26C204.849 516.477 205.398 510.172 205.919 508.237C206.134 506.302 206.851 501.045 207.502 496.273L207.578 495.716C208.248 490.802 207.765 478.165 207.578 477.495C208.333 480.194 208.887 485.647 209.557 491.007C210.227 496.367 215.775 511.322 217.958 516.263C217.262 521.614 215.14 524.398 213.313 531.462C212.279 535.457 211.411 539.804 211.26 545.404C211.116 550.736 210.595 559.294 210.207 561.342C209.793 563.53 208.981 563.565 208.757 565.578C208.534 567.59 209.785 568.349 211.26 568.349H211.26C214.165 568.349 216.49 568.349 219.439 568.916C221.226 569.259 226.508 570.772 228.986 570.2C232.464 569.398 234.263 565.063 228.451 564.314C222.639 563.565 217.958 562.625 217.097 560.301C216.694 559.213 216.612 555.033 217.958 549.118C219.31 543.177 222.256 536.368 222.642 535.131C223.98 530.85 226.126 523.934 226.573 521.4C226.946 519.289 227.643 517.333 227.643 515.3C227.643 511.447 225.074 493.486 225.074 486.489C225.074 479.361 225.581 471.07 222.642 460.492C220.056 451.181 218.254 449.97 217.137 442.153C216.603 438.415 217.936 434.022 219.404 428.728C219.98 426.002 224.734 421.229 225.074 420.132C226.105 416.813 225.471 414.943 225.074 412.302C223.764 411.412 223.577 409.319 223.577 409.084C223.577 407.934 223.372 407.044 223.577 404.964C223.738 403.332 224.541 399.774 224.541 399.774C224.541 399.774 221.364 399.151 219.404 398.707C216.311 398.008 215.982 396.754 215.337 394.744C214.843 393.207 214.609 391.183 216.363 391.104C216.448 391.105 216.534 391.105 216.621 391.105C218.065 391.105 219.51 390.641 221.383 388.323C223.255 386.005 223.905 378.139 223.905 378.139Z" fill="#F8BCBF"></path>
<path d="M209.556 491.002C210.226 496.362 215.774 511.318 217.957 516.259C217.262 521.61 215.139 524.394 213.312 531.457C212.278 535.453 211.411 539.8 211.259 545.4C211.115 550.731 210.594 559.29 210.206 561.338C209.792 563.526 208.98 563.561 208.756 565.573C208.589 567.078 209.247 567.882 210.206 568.192C210.926 566.648 212.429 563.116 212.681 561.338C212.996 559.115 213.305 548.238 213.305 546.141C213.305 544.044 214.901 534.943 215.819 532.827C217.096 529.885 221.277 518.563 221.592 516.259C221.905 513.961 217.163 501.442 215.837 497.941L215.826 497.912C214.516 494.452 212.786 487.009 211.259 484.493C210.038 482.481 208.295 478.986 207.577 477.49C208.332 480.19 208.887 485.642 209.556 491.002Z" fill="black" fill-opacity="0.05"></path>
<path d="M192.87 491.002C193.405 496.781 193.813 503.258 193.813 503.258C194.134 505.647 195.598 516.162 194.788 519.255C193.611 523.75 192.778 528.214 192.136 533.03C191.546 537.457 191.465 546.769 191.684 549.113C192.006 552.538 191.637 561.548 190.721 563.561C189.805 565.573 189.135 566.512 189.135 567.942C189.135 568.794 189.429 569.646 190.21 570.196C190.852 568.465 192.215 564.714 192.532 563.561C192.928 562.118 192.87 554.73 193.813 549.113C194.757 543.497 194.336 537.983 194.788 533.868C195.017 531.784 197.895 521.396 198.843 519.255C199.792 517.115 196.823 506.193 196.823 503.258C196.823 500.323 195.803 493.718 195.489 491.002C195.178 488.314 192.356 481.924 192.142 480.957C192.14 480.948 192.138 480.938 192.136 480.929C192.138 480.938 192.14 480.947 192.142 480.957C192.991 485.088 192.714 489.325 192.87 491.002Z" fill="black" fill-opacity="0.05"></path>
<path d="M213.408 367.393C219.205 367.393 223.905 372.465 223.905 378.139C223.905 378.139 222.614 387.394 220.58 389.25C218.547 391.105 217.54 390.779 216.567 390.624C213.839 390.188 212.233 389.554 212.233 389.554C209.33 388.463 207.952 387.52 207.952 387.52C205.344 387.092 203.175 383.593 202.922 378.139C202.915 377.982 202.912 377.824 202.912 377.666C202.912 371.992 207.611 367.393 213.408 367.393Z" fill="#F8BCBF"></path>
<path d="M225.771 399.993C224.623 399.82 223.63 399.637 223.63 399.637C223.63 399.637 222.774 404.06 223.095 408.073C223.355 411.326 224.968 412.461 224.968 412.461C224.968 412.461 234.248 407.412 238.711 406.18C243.174 404.949 249.679 400.617 250.583 399.637C251.488 398.658 252.287 397.409 253.56 394.267C255.486 389.511 257.03 385.22 259.132 381.574C259.988 380.09 261.534 377.262 262.533 375.959C263.531 374.655 263.967 371.177 264.328 370.181C264.689 369.185 264.178 367.333 264.101 366.588C264.025 365.843 263.93 365.453 262.888 364.592C262.015 363.871 261.795 363.237 261.318 363.164C260.842 363.092 260.872 363.708 261.142 364.328C261.337 364.776 261.906 365.08 262.175 365.459C262.606 366.066 262.555 366.165 262.635 366.799C262.792 368.047 262.661 369.93 262.661 369.93C262.661 369.93 262.626 367.898 262.533 366.663C262.448 365.529 261.766 365.208 261.326 364.721C261.049 364.416 260.705 364.262 259.933 363.644C259.161 363.027 258.913 362.618 258.451 362.622C257.989 362.626 257.971 363.341 258.272 363.799C258.574 364.256 259.344 364.464 259.757 364.806C260.599 365.5 260.886 366.007 260.955 366.544C261.079 367.512 260.884 369.782 260.884 369.782C260.884 369.782 261.003 366.851 260.845 366.286C260.636 365.537 260.193 365.321 259.519 364.77C259.16 364.475 258.301 364.128 257.965 363.684C257.465 363.023 256.908 362.239 256.401 362.311C255.895 362.383 255.933 363.327 256.103 363.565C256.497 364.115 256.759 364.494 257.233 364.859C257.976 365.432 258.964 365.933 259.083 366.399C259.252 367.059 259.045 369.504 259.045 369.504C259.045 369.504 259.108 367.662 259.059 366.557C259.03 365.891 257.285 365.292 256.592 364.326C256.038 363.555 255.757 363.349 255.36 363.289C254.963 363.229 254.75 364.097 255.095 365.035C255.44 365.973 257.211 366.562 257.289 367.113C257.368 367.664 256.942 370.943 256.942 370.943L256.208 369.946L256.129 367.211C256.129 367.211 255.585 365.446 254.562 365.143C253.538 364.84 254.088 366.554 254.312 367.614C254.68 369.361 254.097 371.36 254.181 372.745C254.264 374.13 256.363 376.458 254.911 378.981C253.459 381.504 251.024 385.335 248.591 389.143C246.159 392.951 246.341 392.63 245.13 395.151C244.629 396.192 241.284 396.64 235.967 398.227C234.475 398.672 231.701 400.582 229.356 400.803C227.136 401.011 226.877 400.16 225.771 399.993Z" fill="#F8BCBF"></path>
<path d="M253.985 366.022C253.913 365.416 254.001 364.976 254.562 365.142C254.686 365.178 254.802 365.236 254.911 365.31C254.911 365.31 255.178 366.257 255.217 366.398C255.255 366.539 255.142 366.864 254.911 366.959C254.688 367.052 254.404 366.893 254.313 366.798C254.221 366.704 253.985 366.022 253.985 366.022Z" fill="#FD565E"></path>
<path d="M254.923 364.077C254.931 363.586 255.108 363.25 255.36 363.288C255.709 363.341 255.969 363.506 256.402 364.069C256.402 364.069 256.386 364.626 256.13 364.769C255.86 364.919 255.452 364.652 255.36 364.592C255.269 364.531 254.923 364.077 254.923 364.077Z" fill="#FD565E"></path>
<path d="M256.402 362.311C256.128 362.35 256.013 362.644 255.993 362.944C255.993 362.944 256.474 363.331 256.592 363.448C256.71 363.564 257.014 363.694 257.233 363.564C257.427 363.45 257.468 363.039 257.468 363.039C257.112 362.606 256.745 362.262 256.402 362.311Z" fill="#FD565E"></path>
<path d="M258.451 362.621C258.144 362.624 258.033 362.941 258.082 363.288C258.082 363.288 258.663 363.683 258.781 363.683C258.898 363.683 259.175 363.729 259.305 363.564C259.403 363.439 259.376 363.163 259.376 363.163C258.999 362.823 258.779 362.618 258.451 362.621Z" fill="#FD565E"></path>
<path d="M261.319 363.163C261.094 363.129 260.982 363.248 260.955 363.448C260.955 363.448 261.335 363.873 261.453 363.971C261.571 364.069 261.82 364.165 261.952 364.069C262.048 363.998 262.096 363.798 262.096 363.798C261.798 363.453 261.604 363.207 261.319 363.163Z" fill="#FD565E"></path>
<path d="M205.974 398.956C200.677 398.314 202.495 396.191 202.495 396.191C202.495 396.191 194.201 399.241 193.505 399.83C193.15 400.131 193.505 401.596 192.97 407.535C192.812 409.288 192.97 410.383 192.97 412.794C192.97 415.205 193.473 416.524 194.449 419.398C196.015 424.011 196.494 425.178 197.483 428.309C199.255 433.915 199.323 438.717 198.846 441.937C198.15 446.637 194.049 449.496 191.717 456.927C188.473 467.27 182.376 490.581 177.881 498.073C173.385 505.564 244.17 503.49 239.101 498.073C234.032 492.655 233.822 486.377 229.666 473.281C227.204 465.523 225.263 460.546 223.872 455.879C222.48 451.212 219.417 446.854 218.239 442.566C217.462 439.732 218.678 432.696 220.23 428.309C221.893 423.606 226.102 422.019 226.102 418.769C226.102 415.519 225.183 412.794 225.183 412.794C225.183 412.794 223.23 411.094 223.872 404.78C224.353 400.9 225.639 399.338 225.183 399.509C224.727 399.68 216.457 397.069 216.457 397.069C216.457 397.069 211.272 399.598 205.974 398.956Z" fill="#7D55FF"></path>
<path d="M225.183 412.794C225.183 412.794 226.102 415.519 226.102 418.769C226.102 422.019 222.207 423.081 220.544 427.784C218.881 432.487 217.462 439.732 218.239 442.565C219.417 446.854 222.48 451.212 223.872 455.879C225.263 460.546 227.204 465.523 229.666 473.281C233.822 486.377 234.032 492.655 239.101 498.072C240.661 499.74 235.034 501.091 226.629 501.943C212.773 503.348 191.367 503.4 182.149 501.285C178.791 500.515 177.05 499.457 177.881 498.072C182.376 490.581 188.473 467.27 191.717 456.927C194.049 449.496 198.15 446.637 198.846 441.936C199.323 438.717 199.255 433.915 197.483 428.308C196.494 425.178 196.015 424.01 194.449 419.398C193.473 416.523 192.97 415.205 192.97 412.794C194.02 414.82 196.393 419.314 197.483 421.075C198.846 423.277 201.15 431.873 201.465 433.969C201.779 436.066 201.465 440.888 201.465 442.565C201.465 444.243 196.74 452.839 195.594 456.927C194.449 461.015 190.667 479.046 189.305 485.651C188.214 490.934 184.08 498.275 182.149 501.285C191.367 503.4 212.773 503.348 226.629 501.943C226.453 499.902 225.183 495.923 224.632 492.779C224.05 489.453 222.293 477.386 221.487 473.805C220.544 469.611 219.076 462.378 217.504 455.879C215.932 449.379 214.464 445.291 213.94 441.412C213.416 437.534 218.239 421.914 220.544 417.092C222.388 413.234 223.498 410.01 223.823 408.88C224.127 411.875 225.183 412.794 225.183 412.794Z" fill="black" fill-opacity="0.05"></path>
<path d="M209.856 562.448C210.91 561.54 216.65 565.843 222.014 565.845C227.377 565.847 224.758 563.702 224.758 563.702C224.758 563.702 228.699 563.059 230.39 563.702C232.081 564.346 232.557 565.882 232.224 567.466C231.749 569.734 229.621 572.103 227.038 572.103C222.649 572.103 221.611 569.958 218.572 569.734C217.544 569.658 216.069 570.269 215.667 570.761C215.265 571.253 215.265 572.103 215.265 572.103L209.544 571.879C209.544 571.879 209.544 570.761 209.23 569.509C209.121 569.071 208.94 568.733 208.757 568.414C208.485 567.938 208.208 567.501 208.158 566.828C208.054 565.44 208.802 563.356 209.856 562.448Z" fill="#C4B6FF"></path>
<path d="M218.569 569.736C221.608 569.961 222.646 572.105 227.034 572.105C229.618 572.105 231.746 569.737 232.221 567.469C232.221 567.469 231.288 569.04 230.387 569.736C229.276 570.594 228.413 570.767 227.034 571.035C223.682 571.685 221.964 569.215 218.569 568.845C217.283 568.704 215.261 568.666 215.261 568.666L208.754 568.417C208.937 568.736 209.118 569.073 209.227 569.512C209.54 570.763 209.54 571.881 209.54 571.881L215.261 572.105C215.261 572.105 215.261 571.255 215.664 570.763C216.066 570.271 217.541 569.66 218.569 569.736Z" fill="black" fill-opacity="0.2"></path>
<path d="M199.192 568.083C195.839 568.083 191.44 563.331 190.386 564.238C189.332 565.146 188.719 567.008 188.822 568.395C188.906 569.52 189.007 570.014 189.281 571.109C189.594 572.36 189.537 573.449 189.537 573.449H194.007C194.007 573.449 193.873 572.647 194.633 572.331C195.392 572.016 196.561 571.966 197.806 572.331C199.773 572.908 200.309 573.449 202.991 573.449C205.672 573.449 208.488 568.401 206.611 566.563C205.319 565.298 201.829 565.937 201.829 565.937C201.829 565.937 202.544 568.083 199.192 568.083Z" fill="#C4B6FF"></path>
<path d="M197.808 572.329C199.775 572.905 200.311 573.447 202.993 573.447C204.629 573.447 206.315 571.568 206.954 569.686C206.954 569.686 206.413 570.442 205.987 570.853C205.021 571.788 204.309 572.28 202.993 572.552C201.3 572.901 200.349 572.013 198.657 571.658C197.644 571.445 197.095 571.211 196.065 571.106C195.11 571.01 193.607 571.106 193.607 571.106H189.283C189.596 572.358 189.539 573.447 189.539 573.447H194.009C194.009 573.447 193.875 572.644 194.635 572.329C195.394 572.014 196.563 571.964 197.808 572.329Z" fill="black" fill-opacity="0.2"></path>
<path d="M217.812 367.04C214.315 367.408 210.736 366.051 207.889 368.115C204.674 370.446 200.459 377.775 201.843 382.711C204.254 391.307 195.434 387.803 195.763 395.815C196.002 401.621 189.786 406.81 189.16 412.587C188.073 422.611 194.886 424.26 203.416 419.716C213.06 414.579 211.232 414.823 213.794 406.822C215.209 402.401 220.712 396.548 220.188 391.936C219.664 387.323 219.781 386.077 220.817 381.872C221.595 378.718 225.526 379.006 224.605 375.891C223.397 371.802 221.208 366.682 217.812 367.04Z" fill="#303030"></path>
<path d="M387.393 572.994C387.61 568.601 384.595 553.244 384.436 545.78C384.244 536.764 387.316 532.216 387.975 528.843C387.224 525.726 385.304 519.906 383.385 512.405C381.408 504.679 380.031 487.617 379.983 487.345L394.675 484.946C394.728 485.519 396.331 497.144 396.813 507.966C397.092 514.232 396.949 521.995 396.793 526.577C396.723 528.649 396.66 529.272 396.601 530.47C396.542 531.668 395.744 533.297 395.495 534.619C394.887 537.844 394.655 541.233 393.706 547.139C391.407 561.44 392.415 573.243 392.415 573.243C392.415 573.243 392.964 575.539 396.117 576.678C397.863 577.309 399.19 578.092 401.272 578.495C402.461 578.726 404.069 578.789 404.069 579.773C404.069 581.132 401.447 582.176 399.773 582.093C398.099 582.011 397.377 581.543 395.382 581.132C393.387 580.72 391.961 581.279 388.979 581.132C387.481 581.058 386.58 578.795 386.88 577.296C387.399 574.697 387.313 574.62 387.393 572.994Z" fill="#C28080"></path>
<path d="M400.02 579.398C399.509 579.909 398.221 580.297 396.722 579.998C395.222 579.698 393.723 579.698 391.025 578.498C388.326 577.299 387.547 574.9 387.247 574.9C386.947 574.9 385.342 577.317 385.927 578.798C386.203 579.496 386.205 579.62 386.527 580.297C387.13 581.567 386.827 582.996 387.127 583.596C387.427 584.195 390.485 584.075 390.725 583.596C390.965 583.116 390.197 582.625 391.025 581.797C391.853 580.969 394.449 581.183 395.522 581.797C397.621 582.996 398.586 583.296 400.619 583.296C402.653 583.296 405.417 580.597 405.417 579.398C405.417 578.227 403.018 578.798 401.519 578.498C400.204 578.235 400.042 578.199 400.042 578.199C400.042 578.199 400.53 578.887 400.02 579.398Z" fill="#C4B6FF"></path>
<path d="M395.522 581.798C397.621 582.997 398.586 583.297 400.62 583.297C401.801 583.297 403.228 582.188 404.218 581.274C404.218 581.274 402.122 582.539 400.62 582.698C398.699 582.9 396.422 581.798 395.822 581.498C394.959 581.066 394.232 580.899 393.424 580.899H390.725C388.326 580.899 386.527 580.299 386.527 580.299C387.13 581.568 386.827 582.997 387.127 583.597C387.427 584.197 390.485 584.077 390.725 583.597C390.965 583.117 390.197 582.626 391.025 581.798C391.853 580.97 394.449 581.185 395.522 581.798Z" fill="black" fill-opacity="0.2"></path>
<path d="M395.416 503.275C396.079 493.21 393.179 474.645 393.179 474.645H385.989L377.887 474.645C377.887 474.645 372.544 484.094 373.25 490.036C373.956 495.978 378.909 498.948 379.579 503.275C379.862 505.109 380.001 513.962 380.286 518.531C380.673 524.746 381.154 531.899 381.17 533.575C381.185 535.251 376.165 543.946 376.165 550.336C376.165 556.726 376.979 579.279 376.979 579.279C376.979 579.279 376.891 581.884 376.687 582.697C376.388 583.896 376.388 584.795 376.388 585.395C376.388 585.995 377.887 587.434 379.386 587.209C381.485 586.894 382.902 586.684 385.361 587.209C386.77 587.511 387.575 588.437 389.581 588.393C391.586 588.35 393.359 587.189 393.478 585.995C393.598 584.801 391.38 584.85 389.581 584.196C386.282 582.996 385.56 583.235 383.884 582.397C382.159 581.534 382.238 579.279 382.238 579.279C382.238 579.279 384.924 555.989 385.361 553.013C385.659 550.98 387.689 544.376 389.281 539.82C390.02 537.703 390.48 537.121 391.08 535.322C391.679 533.523 391.468 532.92 391.979 530.525C393.099 525.281 394.93 510.662 395.416 503.275Z" fill="#CE8989"></path>
<path d="M376.164 550.336C376.164 556.726 376.978 579.279 376.978 579.279C376.978 579.279 376.89 581.884 376.686 582.697C376.387 583.896 376.387 584.795 376.387 585.395C376.387 585.691 376.751 586.191 377.3 586.594C377.3 586.594 377.619 582.214 377.886 579.279C378.503 572.502 376.978 558.41 377.286 550.014C377.43 546.097 378.439 543.836 379.685 540.12C380.667 537.189 381.892 535.622 382.383 533.575C382.874 531.528 380.284 518.531 380.284 518.531C380.672 524.746 381.153 531.899 381.169 533.575C381.184 535.251 376.164 543.946 376.164 550.336Z" fill="black" fill-opacity="0.05"></path>
<path d="M373.139 440.698C372.419 447.584 372.247 454.794 372.071 460.577C372.247 462.336 371.233 466.526 371.233 469.878C371.232 474.377 371.02 475.378 371.233 479.935C371.526 486.237 371.765 484.661 372.071 489.991C372.102 490.528 371.098 491.984 371.233 492.505C371.894 495.064 370.395 495.019 372.861 496.112C373.45 496.373 375.454 495.135 377.937 494.181C378.775 493.86 378.516 492.14 377.937 491.667C376.2 490.249 377.547 490.677 376.261 489.153C374.764 483.746 375.438 476.331 376.261 472.393C377.693 465.541 376.931 460.752 376.931 460.752C376.931 460.752 378.759 455.885 379.613 453.118C380.637 449.802 381.535 447.7 382.127 444.737C382.965 440.547 386.317 432.166 383.803 430.493C381.903 429.228 380.055 429.641 377.937 430.493C374.85 431.736 373.505 437.195 373.139 440.698Z" fill="#CE8888"></path>
<path d="M372.074 460.577C372.25 454.794 372.423 447.584 373.142 440.698C373.508 437.195 374.854 431.736 377.941 430.493C380.058 429.641 381.907 429.228 383.807 430.493C386.321 432.166 382.969 440.547 382.131 444.737C381.538 447.7 380.64 449.802 379.617 453.118C378.763 455.885 376.934 460.752 376.934 460.752C376.934 460.752 375.272 460.532 373.508 460.577C371.745 460.623 373.256 460.482 372.074 460.577Z" fill="#CE8888"></path>
<path d="M375.425 451.445C377.939 452.283 377.939 452.281 379.615 452.281C379.615 452.281 382.129 447.253 383.805 442.225C384.646 439.702 384.644 437.203 383.805 435.524C382.132 432.173 380.183 430.868 377.939 431.333C375.696 431.798 373.577 434.686 372.911 437.199C372.036 440.496 371.629 442.442 371.234 445.579C370.849 448.648 371.234 448.933 371.235 449.769C371.235 450.605 372.911 450.607 375.425 451.445Z" fill="#7D55FF"></path>
<path d="M375.425 451.445C377.939 452.283 377.939 452.281 379.615 452.281C379.615 452.281 382.129 447.253 383.805 442.225C384.646 439.702 384.644 437.203 383.805 435.524C382.132 432.173 380.183 430.868 377.939 431.333C375.696 431.798 373.577 434.686 372.911 437.199C372.036 440.496 371.629 442.442 371.234 445.579C370.849 448.648 371.234 448.933 371.235 449.769C371.235 450.605 372.911 450.607 375.425 451.445Z" fill="black" fill-opacity="0.2"></path>
<path d="M372.531 495.971C371.374 495.455 371.401 494.612 371.242 493.908C371.082 493.205 370.861 492.652 371.082 492.431C371.598 491.916 372.207 492.822 372.273 493.135V492.361C372.273 492.361 372.252 492.055 372.531 491.916C373.046 491.658 373.402 492.431 373.402 492.431L373.562 493.135C373.562 493.135 373.304 491.846 373.82 491.846C374.336 491.846 374.593 492.619 374.593 492.619C374.593 492.619 374.586 492.073 374.851 491.916C375.279 491.663 375.625 492.619 375.625 492.619C375.625 492.619 375.692 493.077 375.883 493.651C376.066 494.203 376.496 494.668 376.496 494.668C376.192 494.794 375.899 494.884 375.619 495.01C375.245 495.177 375.012 495.309 374.692 495.455C374.351 495.611 373.926 495.818 373.66 495.923C373.209 496.1 372.711 496.051 372.531 495.971Z" fill="#CE8888"></path>
<path d="M372.695 495.012C372.323 494.322 372.273 493.91 372.273 493.137V492.363C372.273 492.363 372.252 492.057 372.531 491.918C373.046 491.66 373.402 492.434 373.402 492.434L373.562 493.137C373.562 493.137 373.625 493.898 373.82 494.426C374.011 494.945 374.691 495.457 374.691 495.457C374.351 495.613 373.926 495.82 373.66 495.925C373.66 495.925 372.941 495.469 372.695 495.012Z" fill="black" fill-opacity="0.05"></path>
<path d="M374.692 495.455C374.692 495.455 374.012 494.943 373.821 494.424C373.626 493.896 373.563 493.135 373.563 493.135C373.563 493.135 373.305 491.846 373.821 491.846C374.336 491.846 374.594 492.619 374.594 492.619C374.594 492.619 374.586 492.073 374.852 491.916C375.279 491.663 375.625 492.619 375.625 492.619C375.625 492.619 375.693 493.077 375.883 493.651C376.067 494.203 376.497 494.668 376.497 494.668C376.193 494.794 375.9 494.884 375.619 495.01C375.246 495.177 375.013 495.309 374.692 495.455Z" fill="black" fill-opacity="0.1"></path>
<path d="M373.251 495.444C372.855 495.625 372.498 495.785 372.188 495.906L373.251 495.444Z" fill="#B98181"></path>
<path d="M384.482 422.581C385.71 423.263 387.607 423.781 388.979 423.481C389.479 423.371 389.991 423.163 390.479 422.881C390.479 422.881 389.431 425.71 389.279 427.378C389.045 429.955 391.078 433.975 391.078 433.975C391.078 433.975 386.275 435.147 384.182 434.874C381.197 434.485 374.708 434.076 376.386 431.576C377.147 430.442 378.785 429.477 378.785 429.477C378.785 429.477 380.491 425.772 380.284 423.181C380.067 420.463 378.185 416.523 378.185 416.523C378.674 417.221 379.27 417.847 379.984 418.383C379.984 418.383 381.783 421.082 384.482 422.581Z" fill="#CE8888"></path>
<path d="M386.881 400.092C381.085 400.092 376.986 404.79 376.986 410.586C376.986 413.057 377.53 415.689 378.785 417.482C379.274 418.18 379.271 418.445 379.985 418.982C379.985 418.982 382.084 421.38 384.782 422.879C386.01 423.562 387.275 424.079 388.68 424.079C389.58 424.079 390.179 424.379 391.978 423.779C393.777 423.179 395.576 418.982 396.176 417.122C396.776 415.262 397.375 412.346 397.375 410.586C397.375 404.79 392.677 400.092 386.881 400.092Z" fill="#F5A3A3"></path>
<path d="M384.844 431.395C389.034 431.393 389.28 430.676 389.879 430.676C390.479 430.676 393.545 438.44 395.276 441.47C397.675 445.668 397.075 446.923 397.075 448.525C397.075 450.128 395.045 453.966 394.077 456.462C393.177 460.66 392.278 466.83 392.278 470.854H384.844C382.512 470.854 378.921 470.339 377.846 470.081C377.846 465.294 373.434 453.313 373.434 448.525C373.434 443.737 375.245 432.383 377.3 429.721C378.118 428.66 381.12 431.395 384.844 431.395Z" fill="#7D55FF"></path>
<path d="M384.844 431.395C389.034 431.393 389.28 430.676 389.879 430.676C390.479 430.676 393.545 438.44 395.276 441.47C397.675 445.668 397.075 446.923 397.075 448.525C397.075 450.128 395.045 453.966 394.077 456.462C393.177 460.66 392.278 466.83 392.278 470.854H384.844C382.512 470.854 378.921 470.339 377.846 470.081C377.846 465.294 373.434 453.313 373.434 448.525C373.434 443.737 375.245 432.383 377.3 429.721C378.118 428.66 381.12 431.395 384.844 431.395Z" fill="white" fill-opacity="0.5"></path>
<path d="M368.317 500.536C370.671 492.156 372.371 483.23 373.19 480.999C374.01 478.767 375.604 476.855 376.97 473.94C377.304 472.985 377.845 471.212 377.845 470.08C378.92 470.338 381.798 470.853 384.843 470.853H392.277C392.277 471.615 392.787 472.835 393.565 474.485C395.217 477.986 398.075 483.422 399.833 490.516C404.751 510.373 413.809 517.896 412.767 519.664C412.048 520.883 404.19 524.709 389.878 526.222C376.089 527.679 358.662 523.307 358.662 519.664C365.585 510.555 366.416 507.305 368.317 500.536Z" fill="#7D55FF"></path>
<path d="M368.317 500.536C370.671 492.156 372.371 483.23 373.19 480.999C374.01 478.767 375.604 476.855 376.97 473.94C377.304 472.985 377.845 471.212 377.845 470.08C378.92 470.338 381.798 470.853 384.843 470.853H392.277C392.277 471.615 392.787 472.835 393.565 474.485C395.217 477.986 398.075 483.422 399.833 490.516C404.751 510.373 413.809 517.896 412.767 519.664C412.397 520.291 410.139 521.608 406.085 522.944C405.033 519.726 402.31 512.596 399.833 509.827C396.736 506.366 396.918 495.254 395.279 490.516C393.639 485.779 391.271 478.13 389.878 474.727C391.067 474.691 392.282 474.621 393.565 474.485C392.787 472.835 392.277 471.615 392.277 470.853H384.843C381.798 470.853 378.92 470.338 377.845 470.08C377.845 471.212 377.304 472.985 376.97 473.94C377.634 474.123 378.945 474.327 380.443 474.485C379.868 475.518 378.545 478.421 377.845 481.773C376.97 485.963 375.468 497.802 374.329 500.536C373.19 503.269 370.503 512.743 369.41 516.203C368.536 518.972 365.597 522.222 364.236 523.501C360.828 522.323 358.662 520.948 358.662 519.664C365.585 510.555 366.416 507.305 368.317 500.536Z" fill="black" fill-opacity="0.05"></path>
<path d="M384.843 470.853C381.798 470.853 378.92 470.338 377.845 470.08C377.845 471.212 377.304 472.985 376.971 473.94C378.306 474.308 382.254 474.76 385.078 474.76C387.901 474.76 390.543 474.805 393.566 474.485C392.788 472.835 392.278 471.615 392.278 470.853H384.843Z" fill="black" fill-opacity="0.5"></path>
<path d="M427.204 432.776C426.604 434.275 425.403 435.066 424.879 435.55C424.879 435.55 420.615 437.723 417.731 438.733C414.698 439.796 411.531 441.874 409.705 441.454L402.4 439.774C402.4 439.774 393.897 437.372 389.279 435.984C386.807 435.55 383.569 437.09 383.027 439.373C382.343 442.253 382.465 443.95 384.211 446.341C386.688 448.903 392.586 447.16 399.058 447.16C401.707 447.16 404.63 447.745 407.828 447.945C409.773 448.066 411.283 447.97 412.097 447.773C412.912 447.576 417.262 445.401 421.28 442.963C423.622 441.541 427.204 438.942 427.204 438.942C428.252 438.26 429.293 438.358 430.655 437.573C431.259 437.225 432.015 436.567 432.754 436.074C433.223 435.761 434.253 434.874 434.553 434.575C435.153 433.675 434.337 433.553 434.337 433.328C434.336 433.241 434.553 432.815 434.553 432.476C434.553 432.176 434.361 431.782 433.953 431.576C433.953 431.576 434.253 431.276 433.953 430.677C433.654 430.077 433.571 430.296 433.453 430.077C433.453 430.077 433.354 429.777 433.654 429.477L436.652 426.479C436.952 426.179 437.214 425.542 436.952 425.28C436.689 425.017 436.172 425.28 435.872 425.579C435.573 425.879 435.19 426.142 434.853 426.479C434.516 426.816 433.453 427.678 433.453 427.678C433.453 427.678 433.054 427.949 432.454 428.278C431.855 428.607 430.955 429.178 430.056 429.477C429.156 429.777 428.856 430.03 428.556 430.377C428.103 430.902 427.482 432.081 427.204 432.776Z" fill="#F5A3A3"></path>
<path d="M382.71 438.51C381.362 441.5 381.189 446.331 385.532 447.709C387.003 448.176 390.406 448.552 390.406 447.709C389.534 446.234 389.177 442.883 389.541 440.468C389.905 438.053 392.496 436.435 391.773 436.187C387.127 434.592 383.791 436.111 382.71 438.51Z" fill="#7D55FF"></path>
<path d="M382.71 438.51C381.362 441.5 381.189 446.331 385.532 447.709C387.003 448.176 390.406 448.552 390.406 447.709C389.534 446.234 389.177 442.883 389.541 440.468C389.905 438.053 392.496 436.435 391.773 436.187C387.127 434.592 383.791 436.111 382.71 438.51Z" fill="white" fill-opacity="0.4"></path>
<path d="M389.577 585.396C389.066 585.907 387.778 586.296 386.279 585.996C384.779 585.696 383.28 585.696 380.582 584.496C377.883 583.297 377.104 580.898 376.804 580.898C376.504 580.898 374.899 583.315 375.485 584.796C375.76 585.494 375.762 585.618 376.084 586.296C376.687 587.565 376.384 588.994 376.684 589.594C376.984 590.193 380.042 590.073 380.282 589.594C380.522 589.114 379.754 588.623 380.582 587.795C381.41 586.967 384.006 587.181 385.079 587.795C387.178 588.994 388.143 589.294 390.177 589.294C392.21 589.294 394.974 586.595 394.974 585.396C394.974 584.225 392.575 584.796 391.076 584.496L389.577 584.197C389.577 584.197 390.088 584.885 389.577 585.396Z" fill="#C4B6FF"></path>
<path d="M385.081 587.792C387.179 588.992 388.145 589.291 390.178 589.291C391.359 589.291 392.787 588.182 393.776 587.269C393.776 587.269 391.681 588.533 390.178 588.692C388.257 588.894 385.98 587.792 385.38 587.492C384.517 587.06 383.791 586.893 382.982 586.893H380.283C377.884 586.893 376.085 586.293 376.085 586.293C376.689 587.562 376.385 588.992 376.685 589.591C376.985 590.191 380.043 590.071 380.283 589.591C380.523 589.111 379.755 588.62 380.583 587.792C381.411 586.964 384.007 587.179 385.081 587.792Z" fill="black" fill-opacity="0.2"></path>
<path d="M398.017 407.841C397.664 410.586 396.698 412.581 393.662 416.382C390.627 420.183 395.088 422.865 392.09 424.664C389.092 426.463 388.355 427.624 388.355 431.222C388.355 436.619 378.882 432.743 378.882 440.239C377.982 445.936 375.148 452.718 370.229 452.718C365.31 452.718 364.245 441.105 366.404 437.507C369.103 433.009 367.531 428.562 370.229 424.664C373.135 420.466 372.693 416.492 373.053 413.194C373.652 407.7 375.982 406.271 378.227 401.404C381.615 397.396 383.956 398.895 388.828 397.396C396.623 394.997 398.748 402.163 398.017 407.841Z" fill="#020202"></path>
<path d="M613.632 186.41C612.639 185.369 612.021 184.435 612.021 184.435L611.926 183.449L605.283 185.78C605.283 185.78 605.87 187.559 605.725 188.745C605.579 189.932 604.625 191.135 603.895 192.152C602.285 194.397 602.832 195.136 600.425 197.957C599.576 198.951 598.792 199.165 597.296 200.223C595.8 201.281 595.465 202.227 595.726 202.887C595.988 203.547 596.232 204.436 599.047 204.165C601.025 203.974 605.379 203.442 606.317 201.407C607.256 199.372 608.435 197.047 609.241 196.209C611.025 194.354 611.856 195.956 611.856 195.956L612.486 196.7L616.296 193.397C616.296 193.397 615.54 191.153 615.575 190.341C615.609 189.53 614.626 187.45 613.632 186.41Z" fill="#B5CDFB"></path>
<path d="M616.296 193.398C616.296 193.398 615.625 191.374 615.56 190.695C615.56 190.695 609.778 194.679 608.756 195.92C607.734 197.161 606.413 200.029 605.412 201.496C604.473 202.874 603.336 202.923 601.698 203.238C599.456 203.67 596.268 203.762 596.268 203.762C596.683 204.101 597.453 204.32 599.047 204.166C601.025 203.975 605.379 203.443 606.317 201.408C607.256 199.374 608.435 197.048 609.241 196.21C611.025 194.355 611.856 195.957 611.856 195.957L612.486 196.702L616.296 193.398Z" fill="black" fill-opacity="0.98"></path>
<path d="M613.631 186.411C612.637 185.37 612.019 184.436 612.019 184.436L611.924 183.451L610.125 184.098C610.125 184.098 613.892 186.667 613.565 188.974C613.306 190.796 611.636 191.104 610.483 192.539C609.496 193.767 608.931 194.451 608.054 195.759C606.846 197.559 606.892 199.095 605.323 200.59C604.116 201.741 603.2 202.152 601.651 202.772C599.666 203.567 596.266 203.762 596.266 203.762C596.681 204.101 597.451 204.32 599.045 204.166C601.023 203.975 605.377 203.443 606.315 201.408C607.254 199.373 608.433 197.048 609.239 196.21C611.023 194.355 611.854 195.957 611.854 195.957L612.484 196.701L616.294 193.398L615.736 192.031C615.736 192.031 615.4 191.495 615.573 190.342C615.746 189.189 614.624 187.451 613.631 186.411Z" fill="black" fill-opacity="0.1"></path>
<path d="M591.25 187.189C590.863 185.804 590.758 184.688 590.758 184.688L591.138 183.774L583.198 182.618L582.962 186.5C582.962 186.5 581.298 187.59 580.176 188.144C577.699 189.366 577.248 190.291 573.796 191.647C572.58 192.125 572.152 192.465 570.334 192.694C568.516 192.923 567.775 193.6 567.695 194.305C567.615 195.011 567.412 195.911 570.023 196.996C571.858 197.759 575.95 198.33 577.736 196.977C579.521 195.623 581.657 194.127 582.762 193.767C585.209 192.97 585.188 194.775 585.188 194.775L585.393 195.728L590.31 194.607C590.31 194.607 590.7 192.272 591.112 191.572C591.524 190.873 591.636 188.575 591.25 187.189Z" fill="#B5CDFB"></path>
<path d="M591.248 187.189C590.862 185.803 590.757 184.688 590.757 184.688L591.137 183.774L589.244 183.498C589.244 183.498 591.358 187.538 589.983 189.419C588.898 190.905 587.279 190.391 585.587 191.113C584.138 191.732 583.317 192.07 581.927 192.811C580.015 193.83 579.331 195.207 577.243 195.788C575.636 196.235 574.673 197.158 573.015 196.976C570.889 196.744 567.759 195.331 567.759 195.331C567.966 195.826 568.542 196.381 570.022 196.996C571.857 197.759 575.948 198.33 577.734 196.976C579.52 195.623 581.655 194.126 582.761 193.767C585.208 192.97 585.186 194.775 585.186 194.775L585.392 195.728L590.309 194.607L590.46 193.139C590.46 193.139 590.416 192.508 591.111 191.572C591.806 190.636 591.635 188.574 591.248 187.189Z" fill="black" fill-opacity="0.1"></path>
<path d="M590.311 194.606C590.311 194.606 590.672 192.505 590.934 191.875C590.934 191.875 583.957 192.668 582.472 193.282C580.986 193.895 578.469 195.803 576.896 196.627C575.419 197.4 574.121 197.359 572.701 197.17C570.438 196.868 567.761 195.331 567.761 195.331C567.968 195.825 569.032 196.785 569.957 197.17C570.882 197.554 572.386 198.116 573.774 198.116C575.919 198.116 576.775 197.703 577.736 196.976C579.522 195.622 581.657 194.126 582.762 193.766C585.21 192.969 585.188 194.774 585.188 194.774L585.394 195.727L590.311 194.606Z" fill="black" fill-opacity="0.98"></path>
<path d="M660.854 87.9043C660.854 87.9043 667.769 99.4835 666.102 107.677C664.131 117.362 662.285 121.633 655.215 125.35C647.744 129.278 635.048 128.396 624.157 127.639H624.157C616.984 127.14 607.685 126.761 607.18 128.196C606.676 129.632 606.251 133.296 605.982 136.525C605.677 140.184 605.846 143.7 604.468 148.242C601.354 158.503 600.624 158.43 598.537 164.646C596.885 169.566 592.228 187.062 591.281 188.134C590.335 189.207 582.07 188.513 581.943 186.431C581.817 184.349 587.52 163.506 589.01 151.162C589.956 143.321 590.071 137.962 590.587 131.335C591.104 124.709 590.335 116.02 594.751 113.038C599.168 110.057 645.601 101.173 645.601 101.173L646.591 85.7617L660.854 87.9043Z" fill="#C4B6FF"></path>
<path d="M660.854 87.9043C660.854 87.9043 667.769 99.4835 666.102 107.677C664.131 117.362 662.285 121.633 655.215 125.35C647.744 129.278 635.048 128.396 624.157 127.639H624.157C616.984 127.14 607.685 126.761 607.18 128.196C606.676 129.632 606.251 133.296 605.982 136.525C605.677 140.184 605.846 143.7 604.468 148.242C601.354 158.503 600.624 158.43 598.537 164.646C596.885 169.566 592.228 187.062 591.281 188.134C590.335 189.207 582.07 188.513 581.943 186.431C581.817 184.349 587.52 163.506 589.01 151.162C589.956 143.321 590.071 137.962 590.587 131.335C591.104 124.709 589.578 115.767 595.256 112.534C600.934 109.3 645.601 101.173 645.601 101.173L646.591 85.7617L660.854 87.9043Z" fill="black" fill-opacity="0.2"></path>
<path d="M670.519 119.41C673.854 111.743 669.499 98.9784 669.499 98.9784L655.993 93.916L651.819 108.784C651.819 108.784 608.854 108.532 605.321 109.794C601.787 111.056 597.781 111.017 597.781 117.579C597.781 124.14 600.633 137.114 601.672 152.112C602.578 165.199 603.837 186.728 605.036 187.738C606.235 188.747 614.185 188.936 614.5 186.791C614.5 186.791 615.281 172.987 615.446 167.8C615.656 161.247 616.302 156.819 616.33 146.096C616.349 138.482 612.797 129.314 613.466 127.421C623.27 127.421 644.013 137.863 656.195 134.432C663.883 132.267 666.577 128.474 670.519 119.41Z" fill="#C4B6FF"></path>
<path d="M617.696 96.0997C620.338 95.1672 622.282 93.3823 622.282 93.3823L624.808 97.8835C624.808 97.8835 623.179 99.2354 620.867 101.377L618.832 104.511L616.332 105.875C615.746 105.405 615.966 104.966 616.105 104.511C616.235 104.083 617.164 103.641 617.468 103.147C617.971 102.331 617.923 102.076 617.923 102.076C617.923 102.076 618.244 101.907 617.241 101.921C616.238 101.934 616.105 102.558 616.105 102.558C615.989 102.77 615.494 103.816 615.423 104.056C615.269 104.572 615.111 105.132 614.968 105.647C614.806 106.23 614.769 106.627 614.514 107.011C614.059 107.692 613.951 107.694 613.455 107.693C612.959 107.692 613.567 106.364 613.707 105.419C613.781 104.918 613.958 104.229 614.117 103.627C614.377 102.651 614.824 101.618 614.741 101.782C614.658 101.946 614.389 101.955 613.604 103.374C613.372 103.793 612.999 104.397 612.922 104.965C612.867 105.369 612.58 106.145 612.396 106.329C612.076 106.649 611.558 106.557 611.331 106.329C611.103 106.102 611.519 105.319 611.785 104.511C611.884 103.898 612.14 103.312 612.396 102.806C612.964 101.681 613.455 101.101 613.455 100.931C613.455 100.761 612.609 102.103 612.155 102.558C611.94 102.772 611.571 103.97 611.558 104.283C611.517 105.273 610.645 105.875 610.194 105.647C609.743 105.419 610.4 104.917 610.421 104.056C610.432 103.66 610.913 102.43 611.092 102.076C611.44 101.494 612.005 100.993 612.396 100.418L610.876 101.921C610.691 102.287 610.429 102.742 610.267 103.089C610.098 103.452 609.476 103.697 609.285 103.601C608.877 103.395 609.563 102.476 609.983 101.555C610.189 101.102 610.511 100.604 610.777 100.191C611.041 99.7827 611.423 99.4416 611.655 99.2112C612.407 98.6498 612.922 97.8835 613.707 97.4602C614.741 97.2363 615.946 96.7173 617.696 96.0997Z" fill="#E4B8BA"></path>
<path d="M644.721 11.4575C647.623 9.81634 647.857 9.64073 651.409 10.8282C662.371 14.4932 650.147 40.8603 650.147 40.8603C650.147 40.8603 644.09 59.5354 637.276 59.5354C633.304 59.5354 636.326 50.6352 637.276 40.2293C637.955 32.7846 634.719 23.1956 636.14 20.038C639.547 12.4669 641.819 13.0986 644.721 11.4575Z" fill="black"></path>
<path d="M641.22 34.157C638.652 29.8871 636.88 27.9553 638.435 23.7129C639.523 20.7435 644.755 18.1815 647.017 18.1816C649.279 18.1818 655.483 19.9591 657.762 24.6844C659.538 28.3645 657.075 34.157 657.075 34.157C657.075 34.157 658.5 42.414 659.349 43.2623C660.197 44.1107 668.214 45.1857 668.214 45.1857C668.214 45.1857 660.94 52.8099 651.847 51.9006C645.936 51.3096 641.22 45.2631 641.22 45.2631C641.22 45.2631 648.129 45.0449 649.119 43.4897C650.109 41.9344 650.128 39.4269 650.128 39.4269C649.384 39.72 648.699 39.8889 648.148 39.793C646.046 39.4269 643.354 37.7041 641.22 34.157Z" fill="#F7BBBE"></path>
<path d="M657.762 35.1445C657.762 35.1445 653.366 38.1469 650.127 39.4245C650.127 39.4245 650.028 42.1234 649.119 43.4872C648.209 44.851 642.754 45.1693 642.754 45.1693C642.754 45.1693 644.479 46.0369 646.618 46.215C648.299 46.3549 649.379 46.8613 650.937 46.215C652.62 45.517 653.029 44.2637 654.12 42.8051C656.104 40.1527 657.762 35.1445 657.762 35.1445Z" fill="black" fill-opacity="0.1"></path>
<path d="M637.968 51.1238C638.251 49.1444 639.24 45.1851 641.785 45.1855C644.33 45.186 644.613 48.7202 644.613 48.7202C644.613 48.7202 645.571 58.6976 645.32 65.5452C644.985 74.6829 644.896 85.622 643.199 88.167C641.503 90.712 621.991 100.518 621.991 100.518L618.315 95.4276C618.315 95.4276 634.857 85.3393 635.706 83.3599C636.554 81.3805 637.685 53.1032 637.968 51.1238Z" fill="#7D55FF"></path>
<path d="M637.968 51.1238C638.251 49.1444 639.24 45.1851 641.785 45.1855C644.33 45.186 644.613 48.7202 644.613 48.7202C644.613 48.7202 645.571 58.6976 645.32 65.5452C644.985 74.6829 644.896 85.622 643.199 88.167C641.503 90.712 621.991 100.518 621.991 100.518L618.315 95.4276C618.315 95.4276 634.857 85.3393 635.706 83.3599C636.554 81.3805 637.685 53.1032 637.968 51.1238Z" fill="black" fill-opacity="0.2"></path>
<path d="M643.2 88.167C641.503 90.712 621.992 100.518 621.992 100.518L620.865 98.9562C620.865 98.9562 626.87 96.0167 630.479 93.7278C635.172 90.752 638.535 89.5958 641.786 85.0896C643.599 82.5773 644.506 80.1236 644.871 77.642C644.941 76.3501 644.998 75.0012 645.049 73.6279C644.85 69.0038 643.498 64.1334 643.2 58.4928C642.925 53.274 641.786 45.1855 641.786 45.1855C644.331 45.186 644.614 48.7202 644.614 48.7202C644.614 48.7202 645.572 58.6976 645.321 65.5452C645.225 68.1713 645.149 70.9462 645.049 73.6279C645.107 74.9827 645.067 76.3163 644.871 77.642C644.605 82.6053 644.159 86.728 643.2 88.167Z" fill="black" fill-opacity="0.2"></path>
<path d="M624.86 98.1645C623.659 99.4086 622.371 100.627 622.371 100.627C622.371 100.627 621.146 101.486 620.552 102.446C620.28 102.885 620.069 103.466 619.87 104.036C619.54 104.986 618.506 106.084 619.188 106.538C619.871 106.992 620.504 105.623 620.939 104.876C621.264 104.318 621.447 103.7 621.689 103.355C622.144 102.707 623.323 101.852 623.508 101.991C623.68 102.121 622.977 102.446 621.916 103.5C621.56 104.159 621.213 104.532 620.939 105.319C620.249 106.538 619.567 107.138 619.87 107.365C620.174 107.592 621.122 107.841 621.689 106.683C622.041 105.962 622.649 105.325 622.977 104.719C623.886 103.5 624.84 103.144 625.008 103.195C625.169 103.244 624.341 103.728 623.346 104.719C623.101 105.283 622.75 105.618 622.522 106.228C622.067 106.91 621.613 107.365 621.84 107.592C622.067 107.82 622.835 107.738 623.204 107.365C623.513 107.053 623.659 106.91 623.886 106.683C624.167 106.114 624.568 105.774 625.008 105.319C625.682 104.622 626.406 104.036 626.533 104.264C626.614 104.41 625.705 104.637 625.25 105.319C624.94 105.784 624.86 105.774 624.341 106.228C623.886 106.91 623.119 107.219 623.346 107.592C623.573 107.965 624.633 107.82 625.25 107.138C625.661 106.683 626.163 106.311 626.533 106.001C627.075 105.546 627.772 105.674 628.66 105.319C629.796 104.864 630.706 104.264 631.918 102.9C632.691 102.032 633.528 101.605 634.192 101.162C635.184 100.501 636.4 100.154 636.4 100.154L633.51 95.3982C633.51 95.3982 632.373 96.0805 631.009 96.5351C630.227 96.755 629.119 96.7156 628.054 96.9897L624.86 98.1645Z" fill="#E4B8BA"></path>
<path d="M633.869 102.074L630.475 96.7014C630.475 96.7014 646.028 86.8087 651.118 82.0886C654.37 79.0731 655.021 72.0486 657.056 65.9701C659.202 59.5598 660.591 55.9319 662.287 51.4076C663.562 48.0091 667.296 44.1377 670.77 45.1866C674.532 46.3222 674.164 51.4076 672.608 56.2149C670.405 63.027 669.933 63.3728 668.508 70.3536C667.094 77.2819 662.287 88.3096 660.308 91.1374C658.328 93.9651 633.869 102.074 633.869 102.074Z" fill="#7D55FF"></path>
<path d="M637.98 63.0377C637.98 58.4913 643.663 46.0794 643.663 46.0794C643.663 46.0794 647.453 51.4442 652.756 51.4442C659.803 51.4442 668.359 44.1699 668.359 44.1699L670.032 45.1584C670.032 45.1584 673.651 45.2795 673.67 50.535C673.689 55.8779 670.101 66.3978 669.214 71.5123C668.168 77.5435 664.804 82.937 665.259 86.6793C665.713 90.4215 670.011 97.0353 671.624 101.001C673.236 104.966 674.722 109.639 673.173 110.775C671.624 111.912 660.412 109.727 651.541 108.697C642.669 107.667 635.35 105.143 633.332 102.619C631.313 100.096 639.877 100.097 640.651 97.8242C641.425 95.551 643.267 87.1962 643.663 85.5427C644.509 82.0106 643.071 77.1954 640.708 71.5123C638.887 67.1319 637.98 67.5842 637.98 63.0377Z" fill="#7D55FF"></path>
<path d="M673.173 110.774C671.624 111.456 651.541 108.695 651.541 108.695C651.541 108.695 667.505 109.954 668.359 106.909C669.214 103.864 666.85 98.9529 666.85 98.9529C666.85 98.9529 661.849 91.224 661.849 86.6775C661.849 82.1311 663.668 77.5846 665.259 76.2207C666.85 74.8567 673.67 50.5332 673.67 50.5332C673.689 55.8761 670.101 66.396 669.215 71.5106C668.169 77.5418 664.804 82.9353 665.259 86.6775C665.714 90.4198 670.012 97.0336 671.624 100.999C673.236 104.964 674.723 110.092 673.173 110.774Z" fill="black" fill-opacity="0.05"></path>
<path d="M633.869 102.074L630.252 96.2295C630.252 96.2295 646.028 86.8087 651.118 82.0886C654.37 79.0731 655.022 72.0486 657.056 65.9701C659.202 59.5598 660.591 55.9319 662.287 51.4076C663.562 48.0091 667.296 44.1377 670.771 45.1866C674.532 46.3222 674.164 51.4076 672.609 56.2149C670.405 63.027 669.933 63.3728 668.508 70.3536C667.095 77.2819 662.287 88.3096 660.308 91.1374C658.329 93.9651 633.869 102.074 633.869 102.074Z" fill="#7D55FF"></path>
<path d="M633.869 102.074L630.252 96.2295C630.252 96.2295 646.028 86.8087 651.118 82.0886C654.37 79.0731 655.022 72.0486 657.056 65.9701C659.202 59.5598 660.591 55.9319 662.287 51.4076C663.562 48.0091 667.296 44.1377 670.771 45.1866C674.532 46.3222 674.164 51.4076 672.609 56.2149C670.405 63.027 669.933 63.3728 668.508 70.3536C667.095 77.2819 662.287 88.3096 660.308 91.1374C658.329 93.9651 633.869 102.074 633.869 102.074Z" fill="black" fill-opacity="0.2"></path>
<path d="M660.308 91.1375C658.329 93.9652 633.869 102.074 633.869 102.074L632.784 100.321C632.784 100.321 641.485 98.5495 646.619 96.2296C651.782 93.8971 655.331 92.904 658.895 88.5007C661.821 84.8853 662.009 81.9342 663.668 77.5892C665.956 71.6007 666.334 67.9344 668.509 61.9039C670.328 56.8576 673.669 49.1738 673.669 49.1738C673.891 51.2145 673.406 53.7513 672.609 56.2151C670.405 63.0271 669.933 63.3729 668.509 70.3537C667.095 77.2821 662.288 88.3098 660.308 91.1375Z" fill="black" fill-opacity="0.2"></path>
<path d="M636.456 17.4522C635.196 21.8512 635.635 27.061 637.402 28.6186C639.169 30.1762 639.926 25.5877 641.022 24.0967C642.119 22.6058 643.837 20.1624 643.837 20.1624C643.837 20.1624 645.932 25.3009 649.39 28.031C651.97 30.069 652.797 36.6923 652.797 39.0902C652.797 43.7735 660.316 46.4238 665.794 48.0493C671.891 49.859 665.734 56.3385 671.472 60.4155C673.711 62.0067 676.425 59.794 676.015 50.1945C675.762 44.2895 668.079 44.5779 664.027 31.5226C661.981 24.9301 661.503 14.4876 652.797 11.0806C647.386 8.96344 643.041 10.1951 641.022 12.7189C638.511 15.8578 637.563 13.5879 636.456 17.4522Z" fill="black"></path>
<path d="M648.399 108.386L626.983 106.369L627.478 108.377L648.343 109.455L648.399 108.386Z" fill="#B5CDFB"></path>
<path d="M587.488 82.8279L593.276 106.606L627.478 108.374L626.983 106.366L620.63 84.1787C620.413 83.423 619.736 82.8918 618.95 82.8621L588.406 81.7042C587.803 81.6813 587.345 82.2415 587.488 82.8279Z" fill="#C4B6FF"></path>
<path d="M587.488 82.8279L593.276 106.606L627.478 108.374L626.983 106.366L620.63 84.1787C620.413 83.423 619.736 82.8918 618.95 82.8621L588.406 81.7042C587.803 81.6813 587.345 82.2415 587.488 82.8279Z" fill="#B5CDFB"></path>
<path d="M587.488 82.8279L593.276 106.606L627.478 108.374L626.983 106.366L620.63 84.1787C620.413 83.423 619.736 82.8918 618.95 82.8621L588.406 81.7042C587.803 81.6813 587.345 82.2415 587.488 82.8279Z" fill="black" fill-opacity="0.2"></path>
<path d="M587.01 83.2595L592.798 107.038L627.001 108.806L626.874 108.294L626.506 106.798L620.152 84.6104C619.936 83.8546 619.258 83.3235 618.473 83.2937L587.928 82.1359C587.325 82.113 586.868 82.6732 587.01 83.2595Z" fill="#B5CDFB"></path>
<path d="M648.34 109.91L627 108.807L626.874 108.295L648.366 109.406L648.34 109.91Z" fill="#B5CDFB"></path>
<path d="M648.34 109.91L627 108.807L626.874 108.295L648.366 109.406L648.34 109.91Z" fill="black" fill-opacity="0.2"></path>
</svg>